<?xml version="1.0" standalone="no"?><!DOCTYPE svg PUBLIC "-//W3C//DTD SVG 1.1//EN" "http://www.w3.org/Graphics/SVG/1.1/DTD/svg11.dtd"><svg xmlns:xlink="http://www.w3.org/1999/xlink" version="1.1" style="font-family:'lucida grande', 'lucida sans unicode', arial, helvetica, sans-serif;font-size:12px;" xmlns="http://www.w3.org/2000/svg" width="600" height="400" viewBox="0 0 600 400 " ><desc>Created with Highcharts 4.2.5</desc><defs><clipPath id="highcharts-7"><rect x="0" y="0" width="417" height="289"></rect></clipPath></defs><rect x="0" y="0" width="600" height="400" fill="#FFFFFF" class=" highcharts-background"></rect><path fill="none" d="M 67 319.5 L 484 319.5" stroke="#808080" stroke-width="1"></path><g class="highcharts-grid"></g><g class="highcharts-grid"><path fill="none" d="M 67 360.5 L 484 360.5" stroke="#D8D8D8" stroke-width="1" opacity="1"></path><path fill="none" d="M 67 319.5 L 484 319.5" stroke="#D8D8D8" stroke-width="1" opacity="1"></path><path fill="none" d="M 67 277.5 L 484 277.5" stroke="#D8D8D8" stroke-width="1" opacity="1"></path><path fill="none" d="M 67 236.5 L 484 236.5" stroke="#D8D8D8" stroke-width="1" opacity="1"></path><path fill="none" d="M 67 195.5 L 484 195.5" stroke="#D8D8D8" stroke-width="1" opacity="1"></path><path fill="none" d="M 67 154.5 L 484 154.5" stroke="#D8D8D8" stroke-width="1" opacity="1"></path><path fill="none" d="M 67 112.5 L 484 112.5" stroke="#D8D8D8" stroke-width="1" opacity="1"></path><path fill="none" d="M 67 71.5 L 484 71.5" stroke="#D8D8D8" stroke-width="1" opacity="1"></path></g><g class="highcharts-axis"><path fill="none" d="M 101.5 360 L 101.5 370" stroke="#C0D0E0" stroke-width="1" opacity="1"></path><path fill="none" d="M 136.5 360 L 136.5 370" stroke="#C0D0E0" stroke-width="1" opacity="1"></path><path fill="none" d="M 170.5 360 L 170.5 370" stroke="#C0D0E0" stroke-width="1" opacity="1"></path><path fill="none" d="M 205.5 360 L 205.5 370" stroke="#C0D0E0" stroke-width="1" opacity="1"></path><path fill="none" d="M 240.5 360 L 240.5 370" stroke="#C0D0E0" stroke-width="1" opacity="1"></path><path fill="none" d="M 275.5 360 L 275.5 370" stroke="#C0D0E0" stroke-width="1" opacity="1"></path><path fill="none" d="M 309.5 360 L 309.5 370" stroke="#C0D0E0" stroke-width="1" opacity="1"></path><path fill="none" d="M 344.5 360 L 344.5 370" stroke="#C0D0E0" stroke-width="1" opacity="1"></path><path fill="none" d="M 379.5 360 L 379.5 370" stroke="#C0D0E0" stroke-width="1" opacity="1"></path><path fill="none" d="M 414.5 360 L 414.5 370" stroke="#C0D0E0" stroke-width="1" opacity="1"></path><path fill="none" d="M 448.5 360 L 448.5 370" stroke="#C0D0E0" stroke-width="1" opacity="1"></path><path fill="none" d="M 484.5 360 L 484.5 370" stroke="#C0D0E0" stroke-width="1" opacity="1"></path><path fill="none" d="M 66.5 360 L 66.5 370" stroke="#C0D0E0" stroke-width="1" opacity="1"></path><path fill="none" d="M 67 360.5 L 484 360.5" stroke="#C0D0E0" stroke-width="1"></path></g><g class="highcharts-axis"><text x="28.09375" text-anchor="middle" transform="translate(0,0) rotate(270 28.09375 215.5)" class=" highcharts-yaxis-title" style="color:#707070;fill:#707070;" y="215.5"><tspan>Load %</tspan></text></g><g class="highcharts-series-group"><g class="highcharts-series highcharts-series-0" transform="translate(67,71) scale(1 1)" clip-path="url(#highcharts-7)"><path fill="none" d="M 17.375 189.9142857142857 L 52.125 190.73999999999998 L 86.875 169.27142857142854 L 121.625 127.98571428571427 L 156.375 97.43428571428569 L 191.125 70.18571428571425 L 225.875 39.63428571428568 L 260.625 28.899999999999977 L 295.375 55.32285714285712 L 330.125 96.6085714285714 L 364.875 132.94 L 399.625 168.44571428571427" stroke="#7cb5ec" stroke-width="2" stroke-linejoin="round" stroke-linecap="round"></path></g><g class="highcharts-markers highcharts-series-0" transform="translate(67,71) scale(1 1)" clip-path="none"><path fill="#7cb5ec" d="M 399 164.44571428571427 C 404.328 164.44571428571427 404.328 172.44571428571427 399 172.44571428571427 C 393.672 172.44571428571427 393.672 164.44571428571427 399 164.44571428571427 Z"></path><path fill="#7cb5ec" d="M 364 128.94 C 369.328 128.94 369.328 136.94 364 136.94 C 358.672 136.94 358.672 128.94 364 128.94 Z"></path><path fill="#7cb5ec" d="M 330 92.6085714285714 C 335.328 92.6085714285714 335.328 100.6085714285714 330 100.6085714285714 C 324.672 100.6085714285714 324.672 92.6085714285714 330 92.6085714285714 Z"></path><path fill="#7cb5ec" d="M 295 51.32285714285712 C 300.328 51.32285714285712 300.328 59.32285714285712 295 59.32285714285712 C 289.672 59.32285714285712 289.672 51.32285714285712 295 51.32285714285712 Z"></path><path fill="#7cb5ec" d="M 260 24.899999999999977 C 265.328 24.899999999999977 265.328 32.89999999999998 260 32.89999999999998 C 254.672 32.89999999999998 254.672 24.899999999999977 260 24.899999999999977 Z"></path><path fill="#7cb5ec" d="M 225 35.63428571428568 C 230.328 35.63428571428568 230.328 43.63428571428568 225 43.63428571428568 C 219.672 43.63428571428568 219.672 35.63428571428568 225 35.63428571428568 Z"></path><path fill="#7cb5ec" d="M 191 66.18571428571425 C 196.328 66.18571428571425 196.328 74.18571428571425 191 74.18571428571425 C 185.672 74.18571428571425 185.672 66.18571428571425 191 66.18571428571425 Z"></path><path fill="#7cb5ec" d="M 156 93.43428571428569 C 161.328 93.43428571428569 161.328 101.43428571428569 156 101.43428571428569 C 150.672 101.43428571428569 150.672 93.43428571428569 156 93.43428571428569 Z"></path><path fill="#7cb5ec" d="M 121 123.98571428571427 C 126.328 123.98571428571427 126.328 131.98571428571427 121 131.98571428571427 C 115.672 131.98571428571427 115.672 123.98571428571427 121 123.98571428571427 Z"></path><path fill="#7cb5ec" d="M 86 165.27142857142854 C 91.328 165.27142857142854 91.328 173.27142857142854 86 173.27142857142854 C 80.672 173.27142857142854 80.672 165.27142857142854 86 165.27142857142854 Z"></path><path fill="#7cb5ec" d="M 52 186.73999999999998 C 57.328 186.73999999999998 57.328 194.73999999999998 52 194.73999999999998 C 46.672 194.73999999999998 46.672 186.73999999999998 52 186.73999999999998 Z"></path><path fill="#7cb5ec" d="M 17 185.9142857142857 C 22.328 185.9142857142857 22.328 193.9142857142857 17 193.9142857142857 C 11.672 193.9142857142857 11.672 185.9142857142857 17 185.9142857142857 Z"></path></g><g class="highcharts-series highcharts-series-1" transform="translate(67,71) scale(1 1)" clip-path="url(#highcharts-7)"><path fill="none" d="M 17.375 249.3657142857143 L 52.125 241.10857142857142 L 86.875 200.64857142857142 L 121.625 154.4085714285714 L 156.375 107.34285714285713 L 191.125 66.05714285714282 L 225.875 42.93714285714282 L 260.625 48.71714285714282 L 295.375 81.74571428571426 L 330.125 131.2885714285714 L 364.875 176.70285714285714 L 399.625 227.07142857142856" stroke="#434348" stroke-width="2" stroke-linejoin="round" stroke-linecap="round"></path></g><g class="highcharts-markers highcharts-series-1" transform="translate(67,71) scale(1 1)" clip-path="none"><path fill="#434348" d="M 399 223.07142857142856 L 403 227.07142857142856 399 231.07142857142856 395 227.07142857142856 Z"></path><path fill="#434348" d="M 364 172.70285714285714 L 368 176.70285714285714 364 180.70285714285714 360 176.70285714285714 Z"></path><path fill="#434348" d="M 330 127.2885714285714 L 334 131.2885714285714 330 135.2885714285714 326 131.2885714285714 Z"></path><path fill="#434348" d="M 295 77.74571428571426 L 299 81.74571428571426 295 85.74571428571426 291 81.74571428571426 Z"></path><path fill="#434348" d="M 260 44.71714285714282 L 264 48.71714285714282 260 52.71714285714282 256 48.71714285714282 Z"></path><path fill="#434348" d="M 225 38.93714285714282 L 229 42.93714285714282 225 46.93714285714282 221 42.93714285714282 Z"></path><path fill="#434348" d="M 191 62.05714285714282 L 195 66.05714285714282 191 70.05714285714282 187 66.05714285714282 Z"></path><path fill="#434348" d="M 156 103.34285714285713 L 160 107.34285714285713 156 111.34285714285713 152 107.34285714285713 Z"></path><path fill="#434348" d="M 121 150.4085714285714 L 125 154.4085714285714 121 158.4085714285714 117 154.4085714285714 Z"></path><path fill="#434348" d="M 86 196.64857142857142 L 90 200.64857142857142 86 204.64857142857142 82 200.64857142857142 Z"></path><path fill="#434348" d="M 52 237.10857142857142 L 56 241.10857142857142 52 245.10857142857142 48 241.10857142857142 Z"></path><path fill="#434348" d="M 17 245.3657142857143 L 21 249.3657142857143 17 253.3657142857143 13 249.3657142857143 Z"></path></g><g class="highcharts-series highcharts-series-2" transform="translate(67,71) scale(1 1)" clip-path="url(#highcharts-7)"><path fill="none" d="M 17.375 255.1457142857143 L 52.125 242.76 L 86.875 218.8142857142857 L 121.625 178.3542857142857 L 156.375 136.24285714285713 L 191.125 107.34285714285713 L 225.875 94.13142857142853 L 260.625 99.91142857142856 L 295.375 129.63714285714283 L 330.125 173.39999999999998 L 364.875 215.51142857142855 L 399.625 239.45714285714286" stroke="#90ed7d" stroke-width="2" stroke-linejoin="round" stroke-linecap="round"></path></g><g class="highcharts-markers highcharts-series-2" transform="translate(67,71) scale(1 1)" clip-path="none"><path fill="#90ed7d" d="M 395 235.45714285714286 L 403 235.45714285714286 403 243.45714285714286 395 243.45714285714286 Z"></path><path fill="#90ed7d" d="M 360 211.51142857142855 L 368 211.51142857142855 368 219.51142857142855 360 219.51142857142855 Z"></path><path fill="#90ed7d" d="M 326 169.39999999999998 L 334 169.39999999999998 334 177.39999999999998 326 177.39999999999998 Z"></path><path fill="#90ed7d" d="M 291 125.63714285714283 L 299 125.63714285714283 299 133.63714285714283 291 133.63714285714283 Z"></path><path fill="#90ed7d" d="M 256 95.91142857142856 L 264 95.91142857142856 264 103.91142857142856 256 103.91142857142856 Z"></path><path fill="#90ed7d" d="M 221 90.13142857142853 L 229 90.13142857142853 229 98.13142857142853 221 98.13142857142853 Z"></path><path fill="#90ed7d" d="M 187 103.34285714285713 L 195 103.34285714285713 195 111.34285714285713 187 111.34285714285713 Z"></path><path fill="#90ed7d" d="M 152 132.24285714285713 L 160 132.24285714285713 160 140.24285714285713 152 140.24285714285713 Z"></path><path fill="#90ed7d" d="M 117 174.3542857142857 L 125 174.3542857142857 125 182.3542857142857 117 182.3542857142857 Z"></path><path fill="#90ed7d" d="M 82 214.8142857142857 L 90 214.8142857142857 90 222.8142857142857 82 222.8142857142857 Z"></path><path fill="#90ed7d" d="M 48 238.76 L 56 238.76 56 246.76 48 246.76 Z"></path><path fill="#90ed7d" d="M 13 251.1457142857143 L 21 251.1457142857143 21 259.1457142857143 13 259.1457142857143 Z"></path></g><g class="highcharts-series highcharts-series-3" transform="translate(67,71) scale(1 1)" clip-path="url(#highcharts-7)"><path fill="none" d="M 17.375 215.51142857142855 L 52.125 213.03428571428572 L 86.875 200.64857142857142 L 121.625 177.5285714285714 L 156.375 149.4542857142857 L 191.125 122.20571428571427 L 225.875 107.34285714285713 L 260.625 110.64571428571426 L 295.375 130.46285714285713 L 330.125 162.66571428571427 L 364.875 193.21714285714285 L 399.625 208.07999999999998" stroke="#f7a35c" stroke-width="2" stroke-linejoin="round" stroke-linecap="round"></path></g><g class="highcharts-markers highcharts-series-3" transform="translate(67,71) scale(1 1)" clip-path="none"><path fill="#f7a35c" d="M 399 204.07999999999998 L 403 212.07999999999998 395 212.07999999999998 Z"></path><path fill="#f7a35c" d="M 364 189.21714285714285 L 368 197.21714285714285 360 197.21714285714285 Z"></path><path fill="#f7a35c" d="M 330 158.66571428571427 L 334 166.66571428571427 326 166.66571428571427 Z"></path><path fill="#f7a35c" d="M 295 126.46285714285713 L 299 134.46285714285713 291 134.46285714285713 Z"></path><path fill="#f7a35c" d="M 260 106.64571428571426 L 264 114.64571428571426 256 114.64571428571426 Z"></path><path fill="#f7a35c" d="M 225 103.34285714285713 L 229 111.34285714285713 221 111.34285714285713 Z"></path><path fill="#f7a35c" d="M 191 118.20571428571427 L 195 126.20571428571427 187 126.20571428571427 Z"></path><path fill="#f7a35c" d="M 156 145.4542857142857 L 160 153.4542857142857 152 153.4542857142857 Z"></path><path fill="#f7a35c" d="M 121 173.5285714285714 L 125 181.5285714285714 117 181.5285714285714 Z"></path><path fill="#f7a35c" d="M 86 196.64857142857142 L 90 204.64857142857142 82 204.64857142857142 Z"></path><path fill="#f7a35c" d="M 52 209.03428571428572 L 56 217.03428571428572 48 217.03428571428572 Z"></path><path fill="#f7a35c" d="M 17 211.51142857142855 L 21 219.51142857142855 13 219.51142857142855 Z"></path></g></g><text x="280" text-anchor="middle" class="highcharts-title" style="color:#333333;font-size:18px;fill:#333333;width:536px;" y="24"><tspan>Monthly Average Network load</tspan></text><text x="280" text-anchor="middle" class="highcharts-subtitle" style="color:#555555;fill:#555555;width:536px;" y="52"><tspan>For cities with largest amount of users</tspan></text><g class="highcharts-legend" transform="translate(496,156)"><g><g><g class="highcharts-legend-item" transform="translate(8,3)"><path fill="none" d="M 0 11 L 16 11" stroke="#7cb5ec" stroke-width="2"></path><path fill="#7cb5ec" d="M 8 7 C 13.328 7 13.328 15 8 15 C 2.6719999999999997 15 2.6719999999999997 7 8 7 Z"></path><text x="21" style="color:#333333;font-size:12px;font-weight:bold;cursor:pointer;fill:#333333;" text-anchor="start" y="15">Tokyo</text></g><g class="highcharts-legend-item" transform="translate(8,21)"><path fill="none" d="M 0 11 L 16 11" stroke="#434348" stroke-width="2"></path><path fill="#434348" d="M 8 7 L 12 11 8 15 4 11 Z"></path><text x="21" y="15" style="color:#333333;font-size:12px;font-weight:bold;cursor:pointer;fill:#333333;" text-anchor="start"><tspan>New York</tspan></text></g><g class="highcharts-legend-item" transform="translate(8,39)"><path fill="none" d="M 0 11 L 16 11" stroke="#90ed7d" stroke-width="2"></path><path fill="#90ed7d" d="M 4 7 L 12 7 12 15 4 15 Z"></path><text x="21" y="15" style="color:#333333;font-size:12px;font-weight:bold;cursor:pointer;fill:#333333;" text-anchor="start">Berlin</text></g><g class="highcharts-legend-item" transform="translate(8,57)"><path fill="none" d="M 0 11 L 16 11" stroke="#f7a35c" stroke-width="2"></path><path fill="#f7a35c" d="M 8 7 L 12 15 4 15 Z"></path><text x="21" y="15" style="color:#333333;font-size:12px;font-weight:bold;cursor:pointer;fill:#333333;" text-anchor="start">London</text></g></g></g></g><g class="highcharts-axis-labels highcharts-xaxis-labels"><text x="84.375" style="color:#606060;cursor:default;font-size:11px;fill:#606060;" text-anchor="middle" transform="translate(0,0)" y="379" opacity="1">Jan</text><text x="119.125" style="color:#606060;cursor:default;font-size:11px;fill:#606060;" text-anchor="middle" transform="translate(0,0)" y="379" opacity="1">Feb</text><text x="153.875" style="color:#606060;cursor:default;font-size:11px;fill:#606060;" text-anchor="middle" transform="translate(0,0)" y="379" opacity="1">Mar</text><text x="188.625" style="color:#606060;cursor:default;font-size:11px;fill:#606060;" text-anchor="middle" transform="translate(0,0)" y="379" opacity="1">Apr</text><text x="223.375" style="color:#606060;cursor:default;font-size:11px;fill:#606060;" text-anchor="middle" transform="translate(0,0)" y="379" opacity="1">May</text><text x="258.125" style="color:#606060;cursor:default;font-size:11px;fill:#606060;" text-anchor="middle" transform="translate(0,0)" y="379" opacity="1">Jun</text><text x="292.875" style="color:#606060;cursor:default;font-size:11px;fill:#606060;" text-anchor="middle" transform="translate(0,0)" y="379" opacity="1">Jul</text><text x="327.625" style="color:#606060;cursor:default;font-size:11px;fill:#606060;" text-anchor="middle" transform="translate(0,0)" y="379" opacity="1">Aug</text><text x="362.375" style="color:#606060;cursor:default;font-size:11px;fill:#606060;" text-anchor="middle" transform="translate(0,0)" y="379" opacity="1">Sep</text><text x="397.125" style="color:#606060;cursor:default;font-size:11px;fill:#606060;" text-anchor="middle" transform="translate(0,0)" y="379" opacity="1">Oct</text><text x="431.875" style="color:#606060;cursor:default;font-size:11px;fill:#606060;" text-anchor="middle" transform="translate(0,0)" y="379" opacity="1">Nov</text><text x="466.625" style="color:#606060;cursor:default;font-size:11px;fill:#606060;" text-anchor="middle" transform="translate(0,0)" y="379" opacity="1">Dec</text></g><g class="highcharts-axis-labels highcharts-yaxis-labels"><text x="52" style="color:#606060;cursor:default;font-size:11px;fill:#606060;width:188px;text-overflow:clip;" text-anchor="end" transform="translate(0,0)" y="363" opacity="1">0</text><text x="52" style="color:#606060;cursor:default;font-size:11px;fill:#606060;width:188px;text-overflow:clip;" text-anchor="end" transform="translate(0,0)" y="321" opacity="1">5</text><text x="52" style="color:#606060;cursor:default;font-size:11px;fill:#606060;width:188px;text-overflow:clip;" text-anchor="end" transform="translate(0,0)" y="280" opacity="1">10</text><text x="52" style="color:#606060;cursor:default;font-size:11px;fill:#606060;width:188px;text-overflow:clip;" text-anchor="end" transform="translate(0,0)" y="239" opacity="1">15</text><text x="52" style="color:#606060;cursor:default;font-size:11px;fill:#606060;width:188px;text-overflow:clip;" text-anchor="end" transform="translate(0,0)" y="197" opacity="1">20</text><text x="52" style="color:#606060;cursor:default;font-size:11px;fill:#606060;width:188px;text-overflow:clip;" text-anchor="end" transform="translate(0,0)" y="156" opacity="1">25</text><text x="52" style="color:#606060;cursor:default;font-size:11px;fill:#606060;width:188px;text-overflow:clip;" text-anchor="end" transform="translate(0,0)" y="115" opacity="1">30</text><text x="52" style="color:#606060;cursor:default;font-size:11px;fill:#606060;width:188px;text-overflow:clip;" text-anchor="end" transform="translate(0,0)" y="73" opacity="1">35</text></g><g class="highcharts-tooltip" style="cursor:default;padding:0;pointer-events:none;white-space:nowrap;" transform="translate(0,-9999)"><path fill="none" d="M 3.5 0.5 L 13.5 0.5 C 16.5 0.5 16.5 0.5 16.5 3.5 L 16.5 13.5 C 16.5 16.5 16.5 16.5 13.5 16.5 L 3.5 16.5 C 0.5 16.5 0.5 16.5 0.5 13.5 L 0.5 3.5 C 0.5 0.5 0.5 0.5 3.5 0.5"  stroke="black" stroke-opacity="0.049999999999999996" stroke-width="5" transform="translate(1, 1)"></path><path fill="none" d="M 3.5 0.5 L 13.5 0.5 C 16.5 0.5 16.5 0.5 16.5 3.5 L 16.5 13.5 C 16.5 16.5 16.5 16.5 13.5 16.5 L 3.5 16.5 C 0.5 16.5 0.5 16.5 0.5 13.5 L 0.5 3.5 C 0.5 0.5 0.5 0.5 3.5 0.5"  stroke="black" stroke-opacity="0.09999999999999999" stroke-width="3" transform="translate(1, 1)"></path><path fill="none" d="M 3.5 0.5 L 13.5 0.5 C 16.5 0.5 16.5 0.5 16.5 3.5 L 16.5 13.5 C 16.5 16.5 16.5 16.5 13.5 16.5 L 3.5 16.5 C 0.5 16.5 0.5 16.5 0.5 13.5 L 0.5 3.5 C 0.5 0.5 0.5 0.5 3.5 0.5"  stroke="black" stroke-opacity="0.15" stroke-width="1" transform="translate(1, 1)"></path><path fill="rgb(249, 249, 249)" fill-opacity=" .85" d="M 3.5 0.5 L 13.5 0.5 C 16.5 0.5 16.5 0.5 16.5 3.5 L 16.5 13.5 C 16.5 16.5 16.5 16.5 13.5 16.5 L 3.5 16.5 C 0.5 16.5 0.5 16.5 0.5 13.5 L 0.5 3.5 C 0.5 0.5 0.5 0.5 3.5 0.5"></path><text x="8" style="font-size:12px;color:#333333;fill:#333333;" y="20"></text></g><text x="590" text-anchor="end" style="cursor:pointer;color:#909090;font-size:9px;fill:#909090;" y="395">Highcharts.com</text></svg>