<?xml version="1.0" standalone="no"?><!DOCTYPE svg PUBLIC "-//W3C//DTD SVG 1.1//EN" "http://www.w3.org/Graphics/SVG/1.1/DTD/svg11.dtd"><svg xmlns:xlink="http://www.w3.org/1999/xlink" version="1.1" style="font-family:'lucida grande', 'lucida sans unicode', arial, helvetica, sans-serif;font-size:12px;" xmlns="http://www.w3.org/2000/svg" width="600" height="400" viewBox="0 0 600 400 "><desc>Created with Highcharts 4.2.5</desc><defs><clipPath id="highcharts-8"><rect x="0" y="0" width="513" height="289"></rect></clipPath><linearGradient x1="0" y1="0" x2="0" y2="1" id="highcharts-9"><stop offset="0" stop-color="#7cb5ec" stop-opacity="1"></stop><stop offset="1" stop-color="rgb(124,181,236)" stop-opacity="0"></stop></linearGradient></defs><rect x="0" y="0" width="600" height="400" fill="#FFFFFF" class=" highcharts-background"></rect><g class="highcharts-grid"></g><g class="highcharts-grid"><path fill="none" d="M 77 360.5 L 590 360.5" stroke="#D8D8D8" stroke-width="1" opacity="1"></path><path fill="none" d="M 77 312.5 L 590 312.5" stroke="#D8D8D8" stroke-width="1" opacity="1"></path><path fill="none" d="M 77 264.5 L 590 264.5" stroke="#D8D8D8" stroke-width="1" opacity="1"></path><path fill="none" d="M 77 216.5 L 590 216.5" stroke="#D8D8D8" stroke-width="1" opacity="1"></path><path fill="none" d="M 77 167.5 L 590 167.5" stroke="#D8D8D8" stroke-width="1" opacity="1"></path><path fill="none" d="M 77 119.5 L 590 119.5" stroke="#D8D8D8" stroke-width="1" opacity="1"></path><path fill="none" d="M 77 70.5 L 590 70.5" stroke="#D8D8D8" stroke-width="1" opacity="1"></path></g><g class="highcharts-axis"><path fill="none" d="M 100.5 360 L 100.5 370" stroke="#C0D0E0" stroke-width="1" opacity="1"></path><path fill="none" d="M 222.5 360 L 222.5 370" stroke="#C0D0E0" stroke-width="1" opacity="1"></path><path fill="none" d="M 342.5 360 L 342.5 370" stroke="#C0D0E0" stroke-width="1" opacity="1"></path><path fill="none" d="M 465.5 360 L 465.5 370" stroke="#C0D0E0" stroke-width="1" opacity="1"></path><path fill="none" d="M 585.5 360 L 585.5 370" stroke="#C0D0E0" stroke-width="1" opacity="1"></path><path fill="none" d="M 77 360.5 L 590 360.5" stroke="#C0D0E0" stroke-width="1"></path></g><g class="highcharts-axis"><text x="27.65625" text-anchor="middle" transform="translate(0,0) rotate(270 27.65625 215.5)" class=" highcharts-yaxis-title" style="color:#707070;fill:#707070;" y="215.5"><tspan>Memory usage rate in decimal</tspan></text></g><g class="highcharts-series-group"><g class="highcharts-series highcharts-series-0" transform="translate(77,71) scale(1 1)" clip-path="url(#highcharts-8)"><path fill="url(#highcharts-9)" d="M 5.0294117647059 222.04833333333335 L 5.6929225516064 226.57599999999994 L 6.3564333385069 226.865 L 7.0199441254074 227.53933333333327 L 7.6834549123079 236.11299999999994 L 8.3469656992084 234.86066666666665 L 9.6739872730095 233.70466666666667 L 10.33749805991 236.691 L 11.00100884681 239.86999999999998 L 11.664519633711 241.02599999999995 L 12.328030420612 243.04899999999992 L 12.991541207512 241.60399999999998 L 14.318562781313 242.0856666666666 L 14.982073568214 242.75999999999996 L 15.645584355114 244.10866666666658 L 16.309095142015 238.81033333333332 L 16.972605928915 234.668 L 17.636116715816 229.17699999999996 L 18.963138289617 228.30999999999995 L 19.626649076517 228.98433333333332 L 20.290159863418 226.96133333333333 L 20.953670650318 223.01166666666666 L 21.617181437219 224.3603333333333 L 22.280692224119 222.8189999999999 L 23.60771379792 222.8189999999999 L 24.271224584821 225.998 L 24.934735371721 221.085 L 25.598246158622 222.8189999999999 L 26.261756945522 217.32799999999997 L 26.925267732423 212.60766666666666 L 28.252289306224 211.548 L 28.915800093124 214.82333333333327 L 29.579310880025 209.62133333333333 L 30.242821666925 221.085 L 30.906332453826 227.82833333333335 L 31.569843240726 226.19066666666663 L 32.896864814527 225.80533333333335 L 33.560375601428 225.90166666666667 L 34.223886388328 231.3926666666666 L 34.887397175229 229.3696666666666 L 35.550907962129 228.5026666666666 L 36.21441874903 230.33299999999994 L 37.541440322831 231.29633333333328 L 38.204951109731 232.74133333333333 L 38.868461896632 234.86066666666665 L 39.531972683533 233.60833333333335 L 40.195483470433 237.84699999999998 L 40.858994257334 237.9433333333333 L 42.186015831135 238.3286666666666 L 42.849526618035 236.97999999999996 L 43.513037404936 236.97999999999996 L 44.176548191836 239.09933333333328 L 44.840058978737 233.99366666666663 L 45.503569765637 238.03966666666662 L 46.830591339438 237.75066666666666 L 47.494102126339 236.78733333333332 L 48.157612913239 239.38833333333335 L 48.82112370014 241.02599999999995 L 49.48463448704 243.43433333333334 L 50.148145273941 241.41133333333335 L 51.475166847742 241.12233333333327 L 52.138677634642 239.00299999999996 L 52.802188421543 236.97999999999996 L 53.465699208443 236.691 L 54.129209995344 241.60399999999998 L 54.792720782244 240.64066666666665 L 56.119742356045 240.54433333333333 L 56.783253142946 240.9296666666666 L 57.446763929846 245.361 L 58.110274716747 242.0856666666666 L 58.773785503647 242.0856666666666 L 59.437296290548 243.53066666666666 L 60.764317864349 243.62699999999998 L 61.427828651249 242.75999999999996 L 62.09133943815 244.01233333333326 L 62.75485022505 241.12233333333327 L 63.418361011951 235.82399999999998 L 64.081871798851 234.86066666666665 L 65.408893372652 233.8973333333333 L 66.072404159553 233.03033333333332 L 66.735914946454 231.8743333333333 L 67.399425733354 233.99366666666663 L 68.062936520255 229.08066666666664 L 68.726447307155 232.35599999999994 L 70.053468880956 232.06699999999998 L 70.716979667857 236.59466666666668 L 71.380490454757 237.26899999999995 L 72.044001241658 239.6773333333333 L 72.707512028558 239.00299999999996 L 73.371022815459 238.714 L 74.69804438926 242.18199999999993 L 75.36155517616 240.83333333333331 L 76.025065963061 242.18199999999993 L 76.688576749961 250.85199999999992 L 77.352087536862 251.33366666666666 L 78.015598323762 251.04466666666667 L 79.342619897563 251.5263333333333 L 80.006130684464 249.40699999999998 L 80.669641471364 248.34733333333332 L 81.333152258265 251.14100000000002 L 81.996663045165 249.21433333333334 L 82.660173832066 250.85199999999992 L 83.987195405867 249.5033333333333 L 84.650706192767 251.14100000000002 L 85.314216979668 251.14100000000002 L 85.977727766568 253.83833333333325 L 86.641238553469 255.95766666666668 L 87.304749340369 252.7786666666666 L 88.63177091417 253.35666666666663 L 89.295281701071 254.12733333333333 L 89.958792487971 253.5493333333333 L 90.622303274872 251.14100000000002 L 91.285814061772 250.7556666666666 L 91.949324848673 251.91166666666658 L 93.276346422474 252.68233333333328 L 93.939857209375 252.97133333333323 L 94.603367996275 250.94833333333327 L 95.266878783176 251.5263333333333 L 95.930389570076 258.944 L 96.593900356977 259.42566666666664 L 97.920921930778 259.23299999999995 L 98.584432717678 259.3293333333333 L 99.247943504579 264.3386666666666 L 99.911454291479 264.14599999999996 L 100.57496507838 265.2056666666666 L 101.23847586528 265.4946666666666 L 102.56549743908 265.4946666666666 L 103.22900822598 264.43499999999995 L 103.89251901288 262.50833333333327 L 104.55602979978 262.02666666666664 L 105.21954058668 254.22366666666665 L 105.88305137358 249.0216666666666 L 107.21007294738 249.40699999999998 L 107.87358373429 250.56299999999996 L 108.53709452119 248.44366666666664 L 109.20060530809 250.46666666666664 L 109.86411609499 245.45733333333334 L 110.52762688189 242.85633333333328 L 111.85464845569 241.60399999999998 L 112.51815924259 244.68666666666664 L 113.18167002949 246.42066666666665 L 113.84518081639 249.0216666666666 L 114.50869160329 247.67299999999994 L 115.17220239019 249.5033333333333 L 116.49922396399 248.82899999999995 L 117.16273475089 249.98499999999993 L 117.82624553779 251.81533333333326 L 118.48975632469 246.517 L 119.15326711159 248.7326666666666 L 119.81677789849 252.7786666666666 L 121.1437994723 252.48966666666664 L 121.8073102592 250.56299999999996 L 122.4708210461 253.45299999999997 L 123.134331833 253.83833333333325 L 123.7978426199 255.2833333333333 L 124.4613534068 254.51266666666663 L 125.7883749806 254.12733333333333 L 126.4518857675 251.91166666666658 L 127.1153965544 254.41633333333328 L 127.7789073413 254.60899999999995 L 128.4424181282 258.4623333333333 L 129.1059289151 260.38899999999995 L 130.4329504889 260.48533333333324 L 131.0964612758 262.123 L 131.7599720627 263.27899999999994 L 132.4234828496 264.53133333333324 L 133.0869936365 262.99 L 133.75050442341 262.4119999999999 L 135.07752599721 262.2193333333333 L 135.74103678411 263.27899999999994 L 136.40454757101 263.66433333333333 L 137.06805835791 259.42566666666664 L 137.73156914481 258.26966666666664 L 138.39507993171 258.6549999999999 L 139.72210150551 259.0403333333333 L 140.38561229241 260.0036666666667 L 141.04912307931 259.3293333333333 L 141.71263386621 259.13666666666666 L 142.37614465311 259.7146666666666 L 143.03965544001 262.31566666666663 L 144.36667701381 262.7973333333333 L 145.03018780071 265.4946666666666 L 145.69369858761 262.50833333333327 L 146.35720937451 262.89366666666666 L 147.02072016142 258.75133333333326 L 147.68423094832 254.41633333333328 L 149.01125252212 254.8016666666666 L 149.67476330902 256.4393333333333 L 150.33827409592 255.76499999999993 L 151.00178488282 253.74199999999993 L 151.66529566972 255.37966666666662 L 152.32880645662 258.5586666666666 L 153.65582803042 258.6549999999999 L 154.31933881732 258.6549999999999 L 154.98284960422 259.13666666666666 L 155.64636039112 255.2833333333333 L 156.30987117802 256.1503333333333 L 156.97338196492 251.91166666666658 L 158.30040353872 251.23733333333334 L 158.96391432562 252.48966666666664 L 159.62742511253 253.06766666666667 L 160.29093589943 252.29699999999997 L 160.95444668633 260.0036666666667 L 161.61795747323 259.0403333333333 L 162.94497904703 259.52199999999993 L 163.60848983393 258.75133333333326 L 164.27200062083 258.5586666666666 L 164.93551140773 258.26966666666664 L 165.59902219463 252.68233333333328 L 166.26253298153 249.0216666666666 L 167.58955455533 249.11800000000002 L 168.25306534223 251.14100000000002 L 168.91657612913 250.7556666666666 L 169.58008691603 251.5263333333333 L 170.24359770293 254.51266666666663 L 170.90710848983 256.8246666666666 L 172.23413006363 255.95766666666668 L 172.89764085054 257.4026666666666 L 173.56115163744 257.01733333333334 L 174.22466242434 254.70533333333327 L 174.88817321124 259.23299999999995 L 175.55168399814 259.7146666666666 L 176.87870557194 260.09999999999997 L 177.54221635884 260.5816666666666 L 178.20572714574 263.18266666666665 L 178.86923793264 261.93033333333335 L 179.53274871954 261.1596666666666 L 180.19625950644 262.2193333333333 L 181.52328108024 262.02666666666664 L 182.18679186714 262.02666666666664 L 182.85030265404 262.50833333333327 L 183.51381344094 259.52199999999993 L 184.17732422784 260.5816666666666 L 184.84083501474 265.39833333333326 L 186.16785658855 264.04966666666667 L 186.83136737545 262.02666666666664 L 187.49487816235 262.4119999999999 L 188.15838894925 261.834 L 188.82189973615 268.28833333333324 L 189.48541052305 269.15533333333326 L 190.81243209685 269.15533333333326 L 191.47594288375 269.05899999999997 L 192.13945367065 268.19199999999995 L 192.80296445755 270.504 L 193.46647524445 268.77 L 194.12998603135 270.98566666666665 L 195.45700760515 270.8893333333333 L 196.12051839205 271.3709999999999 L 196.78402917895 271.94899999999996 L 197.44753996585 266.93966666666665 L 198.11105075275 264.14599999999996 L 198.77456153966 265.013 L 200.10158311346 265.2056666666666 L 200.76509390036 267.2286666666666 L 201.42860468726 266.65066666666667 L 202.09211547416 264.43499999999995 L 202.75562626106 262.2193333333333 L 203.41913704796 262.89366666666666 L 204.74615862176 262.7973333333333 L 205.40966940866 263.85699999999997 L 206.07318019556 264.91666666666663 L 206.73669098246 263.5679999999999 L 207.40020176936 261.1596666666666 L 208.06371255626 260.2926666666666 L 209.39073413006 260.2926666666666 L 210.05424491696 262.2193333333333 L 210.71775570386 265.1093333333333 L 211.38126649077 267.9993333333333 L 212.04477727767 269.73333333333335 L 212.70828806457 269.54066666666665 L 214.03530963837 267.61400000000003 L 214.69882042527 266.2653333333333 L 215.36233121217 265.9763333333333 L 216.02584199907 266.07266666666663 L 216.68935278597 266.07266666666663 L 217.35286357287 266.07266666666663 L 218.67988514667 265.9763333333333 L 219.34339593357 264.91666666666663 L 220.00690672047 265.4946666666666 L 220.67041750737 266.07266666666663 L 221.33392829427 266.93966666666665 L 221.99743908117 266.93966666666665 L 223.32446065497 267.2286666666666 L 223.98797144187 267.8066666666667 L 224.65148222878 265.88 L 225.31499301568 268.6736666666667 L 225.97850380258 268.77 L 226.64201458948 268.86633333333333 L 227.96903616328 268.86633333333333 L 228.63254695018 269.05899999999997 L 229.29605773708 271.65999999999997 L 229.95956852398 270.8893333333333 L 230.62307931088 267.32499999999993 L 231.28659009778 263.18266666666665 L 232.61361167158 263.27899999999994 L 233.27712245848 263.0863333333333 L 233.94063324538 260.38899999999995 L 234.60414403228 260.967 L 235.26765481918 260.67799999999994 L 235.93116560608 259.9073333333333 L 237.25818717989 260.2926666666666 L 237.92169796679 260.5816666666666 L 238.58520875369 260.2926666666666 L 239.24871954059 259.42566666666664 L 239.91223032749 257.88433333333336 L 240.57574111439 256.72833333333324 L 241.90276268819 256.4393333333333 L 242.56627347509 257.3063333333333 L 243.22978426199 256.72833333333324 L 243.89329504889 254.51266666666663 L 244.55680583579 255.18699999999998 L 245.22031662269 256.5356666666666 L 246.54733819649 256.4393333333333 L 247.21084898339 254.8016666666666 L 247.87435977029 256.4393333333333 L 248.53787055719 254.99433333333334 L 249.20138134409 258.077 L 249.86489213099 257.21 L 251.1919137048 257.49899999999997 L 251.8554244917 254.70533333333327 L 252.5189352786 252.29699999999997 L 253.1824460655 251.5263333333333 L 253.8459568524 252.48966666666664 L 254.5094676393 252.008 L 255.8364892131 251.62266666666662 L 256.5 253.6456666666666 L 257.1635107869 252.20066666666668 L 257.8270215738 254.70533333333327 L 258.4905323607 255.37966666666662 L 259.1540431476 254.99433333333334 L 260.4810647214 254.60899999999995 L 261.1445755083 255.2833333333333 L 261.8080862952 255.2833333333333 L 262.4715970821 256.5356666666666 L 263.13510786901 255.5723333333333 L 263.79861865591 257.49899999999997 L 265.12564022971 257.21 L 265.78915101661 259.7146666666666 L 266.45266180351 259.13666666666666 L 267.11617259041 258.1733333333333 L 267.77968337731 255.5723333333333 L 268.44319416421 254.70533333333327 L 269.77021573801 254.32 L 270.43372652491 255.2833333333333 L 271.09723731181 255.6686666666666 L 271.76074809871 257.3063333333333 L 272.42425888561 255.47599999999994 L 273.08776967251 255.37966666666662 L 274.41479124631 255.09066666666666 L 275.07830203321 256.054 L 275.74181282011 253.45299999999997 L 276.40532360702 251.14100000000002 L 277.06883439392 251.23733333333334 L 277.73234518082 251.04466666666667 L 279.05936675462 251.42999999999998 L 279.72287754152 250.94833333333327 L 280.38638832842 247.8656666666666 L 281.04989911532 247.8656666666666 L 281.71340990222 247.7693333333333 L 282.37692068912 246.03533333333326 L 283.70394226292 245.93899999999994 L 284.36745304982 246.6133333333333 L 285.03096383672 244.87933333333328 L 285.69447462362 244.30133333333333 L 286.35798541052 243.81966666666662 L 287.02149619742 246.03533333333326 L 288.34851777122 245.93899999999994 L 289.01202855813 245.64999999999998 L 289.67553934503 243.04899999999992 L 290.33905013193 243.53066666666666 L 291.00256091883 242.471 L 291.66607170573 244.9756666666666 L 292.99309327953 244.68666666666664 L 293.65660406643 243.7233333333333 L 294.32011485333 242.75999999999996 L 294.98362564023 242.56733333333332 L 295.64713642713 242.56733333333332 L 296.31064721403 244.39766666666668 L 297.63766878783 243.81966666666662 L 298.30117957473 242.471 L 298.96469036163 240.06266666666662 L 299.62820114853 236.88366666666664 L 300.29171193543 238.03966666666662 L 300.95522272233 235.9203333333333 L 302.28224429614 233.4156666666666 L 302.94575508304 233.12666666666664 L 303.60926586994 231.8743333333333 L 304.27277665684 233.12666666666664 L 304.93628744374 232.645 L 305.59979823064 229.85133333333334 L 306.92681980444 229.46599999999995 L 307.59033059134 229.46599999999995 L 308.25384137824 229.85133333333334 L 308.91735216514 230.81466666666665 L 309.58086295204 219.15833333333333 L 310.24437373894 219.4473333333333 L 311.57139531274 219.54366666666664 L 312.23490609964 216.46099999999998 L 312.89841688654 218.67666666666662 L 313.56192767344 217.52066666666664 L 314.22543846034 218.0986666666667 L 314.88894924725 220.3143333333333 L 316.21597082105 219.92899999999992 L 316.87948160795 218.9656666666666 L 317.54299239485 220.02533333333335 L 318.20650318175 214.63066666666663 L 318.87001396865 217.8096666666666 L 319.53352475555 212.5113333333333 L 320.86054632935 213.08933333333326 L 321.52405711625 213.66733333333332 L 322.18756790315 213.47466666666668 L 322.85107869005 209.62133333333333 L 323.51458947695 207.791 L 324.17810026385 203.84133333333332 L 325.50512183765 203.16699999999994 L 326.16863262455 203.93766666666664 L 326.83214341145 200.75866666666667 L 327.49565419835 200.18066666666664 L 328.15916498526 202.9743333333333 L 328.82267577216 193.72633333333326 L 330.14969734596 193.4373333333333 L 330.81320813286 202.01099999999997 L 331.47671891976 202.9743333333333 L 332.14022970666 206.82766666666663 L 332.80374049356 204.2266666666666 L 333.46725128046 200.4696666666666 L 334.79427285426 201.14399999999995 L 335.45778364116 207.8873333333333 L 336.12129442806 202.29999999999995 L 336.78480521496 212.89666666666662 L 337.44831600186 211.35533333333336 L 338.11182678876 208.56166666666667 L 339.43884836256 207.69466666666665 L 340.10235914946 210.68099999999998 L 340.76586993637 205.76799999999997 L 341.42938072327 201.81833333333333 L 342.09289151017 201.6256666666667 L 342.75640229707 202.9743333333333 L 344.08342387087 203.3596666666666 L 344.74693465777 204.70833333333331 L 345.41044544467 206.82766666666663 L 346.07395623157 200.75866666666667 L 346.73746701847 199.50633333333326 L 347.40097780537 194.20799999999997 L 348.72799937917 192.76299999999992 L 349.39151016607 191.51066666666662 L 350.05502095297 195.46033333333327 L 350.71853173987 191.7996666666667 L 351.38204252677 184.8636666666666 L 352.04555331367 189.77666666666659 L 353.37257488747 190.25833333333333 L 354.03608567438 187.75366666666662 L 354.69959646128 191.12533333333334 L 355.36310724818 188.81333333333328 L 356.02661803508 191.22166666666664 L 356.69012882198 194.11166666666665 L 358.01715039578 193.8226666666667 L 358.68066118268 189.58399999999995 L 359.34417196958 194.97866666666667 L 360.00768275648 196.03833333333333 L 360.67119354338 195.075 L 361.33470433028 185.82699999999994 L 362.66172590408 184.76733333333328 L 363.32523669098 189.10233333333332 L 363.98874747788 191.12533333333334 L 364.65225826478 193.052 L 365.31576905168 190.54733333333328 L 365.97927983858 189.6803333333333 L 367.30630141239 188.81333333333328 L 367.96981219929 190.73999999999995 L 368.63332298619 185.44166666666666 L 369.29683377309 180.81766666666664 L 369.96034455999 185.15266666666668 L 370.62385534689 179.27633333333335 L 371.95087692069 179.66166666666663 L 372.61438770759 181.20300000000003 L 373.27789849449 184.8636666666666 L 373.94140928139 189.3913333333333 L 374.60492006829 187.17566666666667 L 375.26843085519 190.35466666666665 L 376.59545242899 190.35466666666665 L 377.25896321589 188.81333333333328 L 377.92247400279 193.34099999999995 L 378.58598478969 182.8406666666666 L 379.24949557659 179.27633333333335 L 379.9130063635 175.61566666666667 L 381.2400279373 175.3266666666667 L 381.9035387242 175.712 L 382.5670495111 171.95499999999998 L 383.230560298 173.40000000000003 L 383.8940710849 175.13399999999996 L 384.5575818718 172.14766666666662 L 385.8846034456 171.666 L 386.5481142325 170.60633333333334 L 387.2116250194 170.99166666666662 L 387.8751358063 167.04199999999997 L 388.5386465932 167.42733333333325 L 389.2021573801 160.78033333333337 L 390.5291789539 156.92700000000002 L 391.1926897408 156.06 L 391.8562005277 153.0736666666667 L 392.51971131461 149.60566666666665 L 393.18322210151 146.42666666666668 L 393.84673288841 149.7983333333333 L 395.17375446221 151.72499999999997 L 395.83726524911 149.22033333333334 L 396.50077603601 144.98166666666663 L 397.16428682291 146.23400000000004 L 397.82779760981 135.0593333333333 L 398.49130839671 130.72433333333336 L 399.81832997051 130.24266666666665 L 400.48184075741 133.22899999999996 L 401.14535154431 129.2793333333333 L 401.80886233121 133.61433333333338 L 402.47237311811 115.79266666666663 L 403.13588390501 103.84733333333332 L 404.46290547881 97.29666666666665 L 405.12641626571 106.15933333333328 L 405.78992705262 116.85233333333329 L 406.45343783952 109.91633333333331 L 407.11694862642 112.3246666666667 L 407.78045941332 109.91633333333331 L 409.10748098712 111.45766666666668 L 409.77099177402 113.96233333333328 L 410.43450256092 124.26999999999998 L 411.09801334782 114.3476666666667 L 411.76152413472 123.98100000000002 L 412.42503492162 112.03566666666663 L 413.75205649542 111.84299999999996 L 414.41556728232 112.61366666666666 L 415.07907806922 112.42100000000002 L 415.74258885612 113.38433333333336 L 416.40609964302 118.48999999999998 L 417.06961042992 117.23766666666668 L 418.39663200373 118.1046666666667 L 419.06014279063 114.92566666666661 L 419.72365357753 119.26066666666668 L 420.38716436443 118.1046666666667 L 421.05067515133 115.79266666666663 L 421.71418593823 116.85233333333329 L 423.04120751203 116.85233333333329 L 423.70471829893 113.28800000000004 L 424.36822908583 113.86599999999996 L 425.03173987273 115.50366666666667 L 425.69525065963 102.98033333333333 L 426.35876144653 102.88399999999999 L 427.68578302033 100.18666666666664 L 428.34929380723 102.017 L 429.01280459413 101.34266666666662 L 429.67631538103 93.82866666666669 L 430.33982616793 89.97533333333337 L 431.00333695483 74.94733333333332 L 432.33035852864 75.04366666666664 L 432.99386931554 75.71799999999999 L 433.65738010244 62.90566666666669 L 434.32089088934 49.90066666666664 L 434.98440167624 57.51099999999997 L 435.64791246314 45.46933333333337 L 436.97493403694 44.21700000000004 L 437.63844482384 51.827333333333286 L 438.30195561074 54.42833333333334 L 438.96546639764 76.77766666666665 L 439.62897718454 59.63033333333328 L 440.29248797144 73.11699999999996 L 441.61950954524 73.50233333333335 L 442.28302033214 83.32833333333335 L 442.94653111904 81.69066666666666 L 443.61004190594 85.35133333333334 L 444.27355269284 78.22266666666673 L 444.93706347975 78.608 L 446.26408505355 78.22266666666673 L 446.92759584045 74.0803333333333 L 447.59110662735 65.60300000000004 L 448.25461741425 68.3003333333333 L 448.91812820115 78.22266666666673 L 449.58163898805 85.83299999999994 L 450.90866056185 87.56699999999998 L 451.57217134875 81.49800000000002 L 452.23568213565 72.63533333333336 L 452.89919292255 69.74533333333335 L 453.56270370945 59.53399999999996 L 454.22621449635 54.81366666666662 L 455.55323607015 55.29533333333333 L 456.21674685705 51.730999999999966 L 456.88025764395 59.148666666666685 L 457.54376843086 61.94233333333335 L 458.20727921776 68.10766666666666 L 458.87079000466 71.86466666666666 L 460.19781157846 72.15366666666662 L 460.86132236536 66.2773333333333 L 461.52483315226 65.98833333333334 L 462.18834393916 65.21766666666664 L 462.85185472606 73.5986666666667 L 463.51536551296 77.45200000000003 L 464.84238708676 76.97033333333331 L 465.50589787366 78.608 L 466.16940866056 86.12200000000004 L 466.83291944746 97.971 L 467.49643023436 105.09966666666665 L 468.15994102126 103.2693333333333 L 469.48696259506 102.017 L 470.15047338196 99.03066666666666 L 470.81398416887 102.11333333333332 L 471.47749495577 114.8293333333333 L 472.14100574267 108.27866666666671 L 472.80451652957 103.55833333333337 L 474.13153810337 102.69133333333335 L 474.79504889027 99.80133333333336 L 475.45855967717 104.32899999999995 L 476.12207046407 115.11833333333337 L 476.78558125097 119.06800000000004 L 477.44909203787 122.15066666666667 L 478.77611361167 121.66899999999995 L 479.43962439857 111.93933333333331 L 480.10313518547 99.31966666666662 L 480.76664597237 94.98466666666667 L 481.43015675927 96.42966666666663 L 482.09366754617 89.01200000000003 L 483.42068911998 86.8926666666666 L 484.08419990688 85.73666666666662 L 484.74771069378 77.45200000000003 L 485.41122148068 79.95666666666662 L 486.07473226758 83.52099999999999 L 486.73824305448 86.60366666666664 L 488.06526462828 84.19533333333337 L 488.72877541518 81.78699999999998 L 489.39228620208 99.70500000000004 L 490.05579698898 108.76033333333334 L 490.71930777588 106.15933333333328 L 491.38281856278 96.42966666666663 L 492.70984013658 95.94800000000001 L 493.37335092348 110.10899999999995 L 494.03686171038 109.62733333333333 L 494.70037249728 112.8063333333333 L 495.36388328418 107.70066666666668 L 496.02739407108 108.56766666666667 L 497.35441564489 104.71433333333334 L 498.01792643179 109.62733333333333 L 498.68143721869 106.83366666666666 L 499.34494800559 113.577 L 500.00845879249 115.40733333333336 L 500.67196957939 114.8293333333333 L 501.99899115319 116.17800000000003 L 502.66250194009 113.86599999999996 L 503.32601272699 100.95733333333334 L 503.98952351389 103.65466666666669 L 504.65303430079 103.55833333333337 L 505.31654508769 100.66833333333335 L 506.64356666149 85.44766666666666 L 507.30707744839 105.96666666666664 L 507.97058823529 101.14999999999998 L 507.97058823529 289 L 507.30707744839 289 L 506.64356666149 289 L 505.31654508769 289 L 504.65303430079 289 L 503.98952351389 289 L 503.32601272699 289 L 502.66250194009 289 L 501.99899115319 289 L 500.67196957939 289 L 500.00845879249 289 L 499.34494800559 289 L 498.68143721869 289 L 498.01792643179 289 L 497.35441564489 289 L 496.02739407108 289 L 495.36388328418 289 L 494.70037249728 289 L 494.03686171038 289 L 493.37335092348 289 L 492.70984013658 289 L 491.38281856278 289 L 490.71930777588 289 L 490.05579698898 289 L 489.39228620208 289 L 488.72877541518 289 L 488.06526462828 289 L 486.73824305448 289 L 486.07473226758 289 L 485.41122148068 289 L 484.74771069378 289 L 484.08419990688 289 L 483.42068911998 289 L 482.09366754617 289 L 481.43015675927 289 L 480.76664597237 289 L 480.10313518547 289 L 479.43962439857 289 L 478.77611361167 289 L 477.44909203787 289 L 476.78558125097 289 L 476.12207046407 289 L 475.45855967717 289 L 474.79504889027 289 L 474.13153810337 289 L 472.80451652957 289 L 472.14100574267 289 L 471.47749495577 289 L 470.81398416887 289 L 470.15047338196 289 L 469.48696259506 289 L 468.15994102126 289 L 467.49643023436 289 L 466.83291944746 289 L 466.16940866056 289 L 465.50589787366 289 L 464.84238708676 289 L 463.51536551296 289 L 462.85185472606 289 L 462.18834393916 289 L 461.52483315226 289 L 460.86132236536 289 L 460.19781157846 289 L 458.87079000466 289 L 458.20727921776 289 L 457.54376843086 289 L 456.88025764395 289 L 456.21674685705 289 L 455.55323607015 289 L 454.22621449635 289 L 453.56270370945 289 L 452.89919292255 289 L 452.23568213565 289 L 451.57217134875 289 L 450.90866056185 289 L 449.58163898805 289 L 448.91812820115 289 L 448.25461741425 289 L 447.59110662735 289 L 446.92759584045 289 L 446.26408505355 289 L 444.93706347975 289 L 444.27355269284 289 L 443.61004190594 289 L 442.94653111904 289 L 442.28302033214 289 L 441.61950954524 289 L 440.29248797144 289 L 439.62897718454 289 L 438.96546639764 289 L 438.30195561074 289 L 437.63844482384 289 L 436.97493403694 289 L 435.64791246314 289 L 434.98440167624 289 L 434.32089088934 289 L 433.65738010244 289 L 432.99386931554 289 L 432.33035852864 289 L 431.00333695483 289 L 430.33982616793 289 L 429.67631538103 289 L 429.01280459413 289 L 428.34929380723 289 L 427.68578302033 289 L 426.35876144653 289 L 425.69525065963 289 L 425.03173987273 289 L 424.36822908583 289 L 423.70471829893 289 L 423.04120751203 289 L 421.71418593823 289 L 421.05067515133 289 L 420.38716436443 289 L 419.72365357753 289 L 419.06014279063 289 L 418.39663200373 289 L 417.06961042992 289 L 416.40609964302 289 L 415.74258885612 289 L 415.07907806922 289 L 414.41556728232 289 L 413.75205649542 289 L 412.42503492162 289 L 411.76152413472 289 L 411.09801334782 289 L 410.43450256092 289 L 409.77099177402 289 L 409.10748098712 289 L 407.78045941332 289 L 407.11694862642 289 L 406.45343783952 289 L 405.78992705262 289 L 405.12641626571 289 L 404.46290547881 289 L 403.13588390501 289 L 402.47237311811 289 L 401.80886233121 289 L 401.14535154431 289 L 400.48184075741 289 L 399.81832997051 289 L 398.49130839671 289 L 397.82779760981 289 L 397.16428682291 289 L 396.50077603601 289 L 395.83726524911 289 L 395.17375446221 289 L 393.84673288841 289 L 393.18322210151 289 L 392.51971131461 289 L 391.8562005277 289 L 391.1926897408 289 L 390.5291789539 289 L 389.2021573801 289 L 388.5386465932 289 L 387.8751358063 289 L 387.2116250194 289 L 386.5481142325 289 L 385.8846034456 289 L 384.5575818718 289 L 383.8940710849 289 L 383.230560298 289 L 382.5670495111 289 L 381.9035387242 289 L 381.2400279373 289 L 379.9130063635 289 L 379.24949557659 289 L 378.58598478969 289 L 377.92247400279 289 L 377.25896321589 289 L 376.59545242899 289 L 375.26843085519 289 L 374.60492006829 289 L 373.94140928139 289 L 373.27789849449 289 L 372.61438770759 289 L 371.95087692069 289 L 370.62385534689 289 L 369.96034455999 289 L 369.29683377309 289 L 368.63332298619 289 L 367.96981219929 289 L 367.30630141239 289 L 365.97927983858 289 L 365.31576905168 289 L 364.65225826478 289 L 363.98874747788 289 L 363.32523669098 289 L 362.66172590408 289 L 361.33470433028 289 L 360.67119354338 289 L 360.00768275648 289 L 359.34417196958 289 L 358.68066118268 289 L 358.01715039578 289 L 356.69012882198 289 L 356.02661803508 289 L 355.36310724818 289 L 354.69959646128 289 L 354.03608567438 289 L 353.37257488747 289 L 352.04555331367 289 L 351.38204252677 289 L 350.71853173987 289 L 350.05502095297 289 L 349.39151016607 289 L 348.72799937917 289 L 347.40097780537 289 L 346.73746701847 289 L 346.07395623157 289 L 345.41044544467 289 L 344.74693465777 289 L 344.08342387087 289 L 342.75640229707 289 L 342.09289151017 289 L 341.42938072327 289 L 340.76586993637 289 L 340.10235914946 289 L 339.43884836256 289 L 338.11182678876 289 L 337.44831600186 289 L 336.78480521496 289 L 336.12129442806 289 L 335.45778364116 289 L 334.79427285426 289 L 333.46725128046 289 L 332.80374049356 289 L 332.14022970666 289 L 331.47671891976 289 L 330.81320813286 289 L 330.14969734596 289 L 328.82267577216 289 L 328.15916498526 289 L 327.49565419835 289 L 326.83214341145 289 L 326.16863262455 289 L 325.50512183765 289 L 324.17810026385 289 L 323.51458947695 289 L 322.85107869005 289 L 322.18756790315 289 L 321.52405711625 289 L 320.86054632935 289 L 319.53352475555 289 L 318.87001396865 289 L 318.20650318175 289 L 317.54299239485 289 L 316.87948160795 289 L 316.21597082105 289 L 314.88894924725 289 L 314.22543846034 289 L 313.56192767344 289 L 312.89841688654 289 L 312.23490609964 289 L 311.57139531274 289 L 310.24437373894 289 L 309.58086295204 289 L 308.91735216514 289 L 308.25384137824 289 L 307.59033059134 289 L 306.92681980444 289 L 305.59979823064 289 L 304.93628744374 289 L 304.27277665684 289 L 303.60926586994 289 L 302.94575508304 289 L 302.28224429614 289 L 300.95522272233 289 L 300.29171193543 289 L 299.62820114853 289 L 298.96469036163 289 L 298.30117957473 289 L 297.63766878783 289 L 296.31064721403 289 L 295.64713642713 289 L 294.98362564023 289 L 294.32011485333 289 L 293.65660406643 289 L 292.99309327953 289 L 291.66607170573 289 L 291.00256091883 289 L 290.33905013193 289 L 289.67553934503 289 L 289.01202855813 289 L 288.34851777122 289 L 287.02149619742 289 L 286.35798541052 289 L 285.69447462362 289 L 285.03096383672 289 L 284.36745304982 289 L 283.70394226292 289 L 282.37692068912 289 L 281.71340990222 289 L 281.04989911532 289 L 280.38638832842 289 L 279.72287754152 289 L 279.05936675462 289 L 277.73234518082 289 L 277.06883439392 289 L 276.40532360702 289 L 275.74181282011 289 L 275.07830203321 289 L 274.41479124631 289 L 273.08776967251 289 L 272.42425888561 289 L 271.76074809871 289 L 271.09723731181 289 L 270.43372652491 289 L 269.77021573801 289 L 268.44319416421 289 L 267.77968337731 289 L 267.11617259041 289 L 266.45266180351 289 L 265.78915101661 289 L 265.12564022971 289 L 263.79861865591 289 L 263.13510786901 289 L 262.4715970821 289 L 261.8080862952 289 L 261.1445755083 289 L 260.4810647214 289 L 259.1540431476 289 L 258.4905323607 289 L 257.8270215738 289 L 257.1635107869 289 L 256.5 289 L 255.8364892131 289 L 254.5094676393 289 L 253.8459568524 289 L 253.1824460655 289 L 252.5189352786 289 L 251.8554244917 289 L 251.1919137048 289 L 249.86489213099 289 L 249.20138134409 289 L 248.53787055719 289 L 247.87435977029 289 L 247.21084898339 289 L 246.54733819649 289 L 245.22031662269 289 L 244.55680583579 289 L 243.89329504889 289 L 243.22978426199 289 L 242.56627347509 289 L 241.90276268819 289 L 240.57574111439 289 L 239.91223032749 289 L 239.24871954059 289 L 238.58520875369 289 L 237.92169796679 289 L 237.25818717989 289 L 235.93116560608 289 L 235.26765481918 289 L 234.60414403228 289 L 233.94063324538 289 L 233.27712245848 289 L 232.61361167158 289 L 231.28659009778 289 L 230.62307931088 289 L 229.95956852398 289 L 229.29605773708 289 L 228.63254695018 289 L 227.96903616328 289 L 226.64201458948 289 L 225.97850380258 289 L 225.31499301568 289 L 224.65148222878 289 L 223.98797144187 289 L 223.32446065497 289 L 221.99743908117 289 L 221.33392829427 289 L 220.67041750737 289 L 220.00690672047 289 L 219.34339593357 289 L 218.67988514667 289 L 217.35286357287 289 L 216.68935278597 289 L 216.02584199907 289 L 215.36233121217 289 L 214.69882042527 289 L 214.03530963837 289 L 212.70828806457 289 L 212.04477727767 289 L 211.38126649077 289 L 210.71775570386 289 L 210.05424491696 289 L 209.39073413006 289 L 208.06371255626 289 L 207.40020176936 289 L 206.73669098246 289 L 206.07318019556 289 L 205.40966940866 289 L 204.74615862176 289 L 203.41913704796 289 L 202.75562626106 289 L 202.09211547416 289 L 201.42860468726 289 L 200.76509390036 289 L 200.10158311346 289 L 198.77456153966 289 L 198.11105075275 289 L 197.44753996585 289 L 196.78402917895 289 L 196.12051839205 289 L 195.45700760515 289 L 194.12998603135 289 L 193.46647524445 289 L 192.80296445755 289 L 192.13945367065 289 L 191.47594288375 289 L 190.81243209685 289 L 189.48541052305 289 L 188.82189973615 289 L 188.15838894925 289 L 187.49487816235 289 L 186.83136737545 289 L 186.16785658855 289 L 184.84083501474 289 L 184.17732422784 289 L 183.51381344094 289 L 182.85030265404 289 L 182.18679186714 289 L 181.52328108024 289 L 180.19625950644 289 L 179.53274871954 289 L 178.86923793264 289 L 178.20572714574 289 L 177.54221635884 289 L 176.87870557194 289 L 175.55168399814 289 L 174.88817321124 289 L 174.22466242434 289 L 173.56115163744 289 L 172.89764085054 289 L 172.23413006363 289 L 170.90710848983 289 L 170.24359770293 289 L 169.58008691603 289 L 168.91657612913 289 L 168.25306534223 289 L 167.58955455533 289 L 166.26253298153 289 L 165.59902219463 289 L 164.93551140773 289 L 164.27200062083 289 L 163.60848983393 289 L 162.94497904703 289 L 161.61795747323 289 L 160.95444668633 289 L 160.29093589943 289 L 159.62742511253 289 L 158.96391432562 289 L 158.30040353872 289 L 156.97338196492 289 L 156.30987117802 289 L 155.64636039112 289 L 154.98284960422 289 L 154.31933881732 289 L 153.65582803042 289 L 152.32880645662 289 L 151.66529566972 289 L 151.00178488282 289 L 150.33827409592 289 L 149.67476330902 289 L 149.01125252212 289 L 147.68423094832 289 L 147.02072016142 289 L 146.35720937451 289 L 145.69369858761 289 L 145.03018780071 289 L 144.36667701381 289 L 143.03965544001 289 L 142.37614465311 289 L 141.71263386621 289 L 141.04912307931 289 L 140.38561229241 289 L 139.72210150551 289 L 138.39507993171 289 L 137.73156914481 289 L 137.06805835791 289 L 136.40454757101 289 L 135.74103678411 289 L 135.07752599721 289 L 133.75050442341 289 L 133.0869936365 289 L 132.4234828496 289 L 131.7599720627 289 L 131.0964612758 289 L 130.4329504889 289 L 129.1059289151 289 L 128.4424181282 289 L 127.7789073413 289 L 127.1153965544 289 L 126.4518857675 289 L 125.7883749806 289 L 124.4613534068 289 L 123.7978426199 289 L 123.134331833 289 L 122.4708210461 289 L 121.8073102592 289 L 121.1437994723 289 L 119.81677789849 289 L 119.15326711159 289 L 118.48975632469 289 L 117.82624553779 289 L 117.16273475089 289 L 116.49922396399 289 L 115.17220239019 289 L 114.50869160329 289 L 113.84518081639 289 L 113.18167002949 289 L 112.51815924259 289 L 111.85464845569 289 L 110.52762688189 289 L 109.86411609499 289 L 109.20060530809 289 L 108.53709452119 289 L 107.87358373429 289 L 107.21007294738 289 L 105.88305137358 289 L 105.21954058668 289 L 104.55602979978 289 L 103.89251901288 289 L 103.22900822598 289 L 102.56549743908 289 L 101.23847586528 289 L 100.57496507838 289 L 99.911454291479 289 L 99.247943504579 289 L 98.584432717678 289 L 97.920921930778 289 L 96.593900356977 289 L 95.930389570076 289 L 95.266878783176 289 L 94.603367996275 289 L 93.939857209375 289 L 93.276346422474 289 L 91.949324848673 289 L 91.285814061772 289 L 90.622303274872 289 L 89.958792487971 289 L 89.295281701071 289 L 88.63177091417 289 L 87.304749340369 289 L 86.641238553469 289 L 85.977727766568 289 L 85.314216979668 289 L 84.650706192767 289 L 83.987195405867 289 L 82.660173832066 289 L 81.996663045165 289 L 81.333152258265 289 L 80.669641471364 289 L 80.006130684464 289 L 79.342619897563 289 L 78.015598323762 289 L 77.352087536862 289 L 76.688576749961 289 L 76.025065963061 289 L 75.36155517616 289 L 74.69804438926 289 L 73.371022815459 289 L 72.707512028558 289 L 72.044001241658 289 L 71.380490454757 289 L 70.716979667857 289 L 70.053468880956 289 L 68.726447307155 289 L 68.062936520255 289 L 67.399425733354 289 L 66.735914946454 289 L 66.072404159553 289 L 65.408893372652 289 L 64.081871798851 289 L 63.418361011951 289 L 62.75485022505 289 L 62.09133943815 289 L 61.427828651249 289 L 60.764317864349 289 L 59.437296290548 289 L 58.773785503647 289 L 58.110274716747 289 L 57.446763929846 289 L 56.783253142946 289 L 56.119742356045 289 L 54.792720782244 289 L 54.129209995344 289 L 53.465699208443 289 L 52.802188421543 289 L 52.138677634642 289 L 51.475166847742 289 L 50.148145273941 289 L 49.48463448704 289 L 48.82112370014 289 L 48.157612913239 289 L 47.494102126339 289 L 46.830591339438 289 L 45.503569765637 289 L 44.840058978737 289 L 44.176548191836 289 L 43.513037404936 289 L 42.849526618035 289 L 42.186015831135 289 L 40.858994257334 289 L 40.195483470433 289 L 39.531972683533 289 L 38.868461896632 289 L 38.204951109731 289 L 37.541440322831 289 L 36.21441874903 289 L 35.550907962129 289 L 34.887397175229 289 L 34.223886388328 289 L 33.560375601428 289 L 32.896864814527 289 L 31.569843240726 289 L 30.906332453826 289 L 30.242821666925 289 L 29.579310880025 289 L 28.915800093124 289 L 28.252289306224 289 L 26.925267732423 289 L 26.261756945522 289 L 25.598246158622 289 L 24.934735371721 289 L 24.271224584821 289 L 23.60771379792 289 L 22.280692224119 289 L 21.617181437219 289 L 20.953670650318 289 L 20.290159863418 289 L 19.626649076517 289 L 18.963138289617 289 L 17.636116715816 289 L 16.972605928915 289 L 16.309095142015 289 L 15.645584355114 289 L 14.982073568214 289 L 14.318562781313 289 L 12.991541207512 289 L 12.328030420612 289 L 11.664519633711 289 L 11.00100884681 289 L 10.33749805991 289 L 9.6739872730095 289 L 8.3469656992084 289 L 7.6834549123079 289 L 7.0199441254074 289 L 6.3564333385069 289 L 5.6929225516064 289 L 5.0294117647059 289"></path><path fill="none" d="M 5.0294117647059 222.04833333333335 L 5.6929225516064 226.57599999999994 L 6.3564333385069 226.865 L 7.0199441254074 227.53933333333327 L 7.6834549123079 236.11299999999994 L 8.3469656992084 234.86066666666665 L 9.6739872730095 233.70466666666667 L 10.33749805991 236.691 L 11.00100884681 239.86999999999998 L 11.664519633711 241.02599999999995 L 12.328030420612 243.04899999999992 L 12.991541207512 241.60399999999998 L 14.318562781313 242.0856666666666 L 14.982073568214 242.75999999999996 L 15.645584355114 244.10866666666658 L 16.309095142015 238.81033333333332 L 16.972605928915 234.668 L 17.636116715816 229.17699999999996 L 18.963138289617 228.30999999999995 L 19.626649076517 228.98433333333332 L 20.290159863418 226.96133333333333 L 20.953670650318 223.01166666666666 L 21.617181437219 224.3603333333333 L 22.280692224119 222.8189999999999 L 23.60771379792 222.8189999999999 L 24.271224584821 225.998 L 24.934735371721 221.085 L 25.598246158622 222.8189999999999 L 26.261756945522 217.32799999999997 L 26.925267732423 212.60766666666666 L 28.252289306224 211.548 L 28.915800093124 214.82333333333327 L 29.579310880025 209.62133333333333 L 30.242821666925 221.085 L 30.906332453826 227.82833333333335 L 31.569843240726 226.19066666666663 L 32.896864814527 225.80533333333335 L 33.560375601428 225.90166666666667 L 34.223886388328 231.3926666666666 L 34.887397175229 229.3696666666666 L 35.550907962129 228.5026666666666 L 36.21441874903 230.33299999999994 L 37.541440322831 231.29633333333328 L 38.204951109731 232.74133333333333 L 38.868461896632 234.86066666666665 L 39.531972683533 233.60833333333335 L 40.195483470433 237.84699999999998 L 40.858994257334 237.9433333333333 L 42.186015831135 238.3286666666666 L 42.849526618035 236.97999999999996 L 43.513037404936 236.97999999999996 L 44.176548191836 239.09933333333328 L 44.840058978737 233.99366666666663 L 45.503569765637 238.03966666666662 L 46.830591339438 237.75066666666666 L 47.494102126339 236.78733333333332 L 48.157612913239 239.38833333333335 L 48.82112370014 241.02599999999995 L 49.48463448704 243.43433333333334 L 50.148145273941 241.41133333333335 L 51.475166847742 241.12233333333327 L 52.138677634642 239.00299999999996 L 52.802188421543 236.97999999999996 L 53.465699208443 236.691 L 54.129209995344 241.60399999999998 L 54.792720782244 240.64066666666665 L 56.119742356045 240.54433333333333 L 56.783253142946 240.9296666666666 L 57.446763929846 245.361 L 58.110274716747 242.0856666666666 L 58.773785503647 242.0856666666666 L 59.437296290548 243.53066666666666 L 60.764317864349 243.62699999999998 L 61.427828651249 242.75999999999996 L 62.09133943815 244.01233333333326 L 62.75485022505 241.12233333333327 L 63.418361011951 235.82399999999998 L 64.081871798851 234.86066666666665 L 65.408893372652 233.8973333333333 L 66.072404159553 233.03033333333332 L 66.735914946454 231.8743333333333 L 67.399425733354 233.99366666666663 L 68.062936520255 229.08066666666664 L 68.726447307155 232.35599999999994 L 70.053468880956 232.06699999999998 L 70.716979667857 236.59466666666668 L 71.380490454757 237.26899999999995 L 72.044001241658 239.6773333333333 L 72.707512028558 239.00299999999996 L 73.371022815459 238.714 L 74.69804438926 242.18199999999993 L 75.36155517616 240.83333333333331 L 76.025065963061 242.18199999999993 L 76.688576749961 250.85199999999992 L 77.352087536862 251.33366666666666 L 78.015598323762 251.04466666666667 L 79.342619897563 251.5263333333333 L 80.006130684464 249.40699999999998 L 80.669641471364 248.34733333333332 L 81.333152258265 251.14100000000002 L 81.996663045165 249.21433333333334 L 82.660173832066 250.85199999999992 L 83.987195405867 249.5033333333333 L 84.650706192767 251.14100000000002 L 85.314216979668 251.14100000000002 L 85.977727766568 253.83833333333325 L 86.641238553469 255.95766666666668 L 87.304749340369 252.7786666666666 L 88.63177091417 253.35666666666663 L 89.295281701071 254.12733333333333 L 89.958792487971 253.5493333333333 L 90.622303274872 251.14100000000002 L 91.285814061772 250.7556666666666 L 91.949324848673 251.91166666666658 L 93.276346422474 252.68233333333328 L 93.939857209375 252.97133333333323 L 94.603367996275 250.94833333333327 L 95.266878783176 251.5263333333333 L 95.930389570076 258.944 L 96.593900356977 259.42566666666664 L 97.920921930778 259.23299999999995 L 98.584432717678 259.3293333333333 L 99.247943504579 264.3386666666666 L 99.911454291479 264.14599999999996 L 100.57496507838 265.2056666666666 L 101.23847586528 265.4946666666666 L 102.56549743908 265.4946666666666 L 103.22900822598 264.43499999999995 L 103.89251901288 262.50833333333327 L 104.55602979978 262.02666666666664 L 105.21954058668 254.22366666666665 L 105.88305137358 249.0216666666666 L 107.21007294738 249.40699999999998 L 107.87358373429 250.56299999999996 L 108.53709452119 248.44366666666664 L 109.20060530809 250.46666666666664 L 109.86411609499 245.45733333333334 L 110.52762688189 242.85633333333328 L 111.85464845569 241.60399999999998 L 112.51815924259 244.68666666666664 L 113.18167002949 246.42066666666665 L 113.84518081639 249.0216666666666 L 114.50869160329 247.67299999999994 L 115.17220239019 249.5033333333333 L 116.49922396399 248.82899999999995 L 117.16273475089 249.98499999999993 L 117.82624553779 251.81533333333326 L 118.48975632469 246.517 L 119.15326711159 248.7326666666666 L 119.81677789849 252.7786666666666 L 121.1437994723 252.48966666666664 L 121.8073102592 250.56299999999996 L 122.4708210461 253.45299999999997 L 123.134331833 253.83833333333325 L 123.7978426199 255.2833333333333 L 124.4613534068 254.51266666666663 L 125.7883749806 254.12733333333333 L 126.4518857675 251.91166666666658 L 127.1153965544 254.41633333333328 L 127.7789073413 254.60899999999995 L 128.4424181282 258.4623333333333 L 129.1059289151 260.38899999999995 L 130.4329504889 260.48533333333324 L 131.0964612758 262.123 L 131.7599720627 263.27899999999994 L 132.4234828496 264.53133333333324 L 133.0869936365 262.99 L 133.75050442341 262.4119999999999 L 135.07752599721 262.2193333333333 L 135.74103678411 263.27899999999994 L 136.40454757101 263.66433333333333 L 137.06805835791 259.42566666666664 L 137.73156914481 258.26966666666664 L 138.39507993171 258.6549999999999 L 139.72210150551 259.0403333333333 L 140.38561229241 260.0036666666667 L 141.04912307931 259.3293333333333 L 141.71263386621 259.13666666666666 L 142.37614465311 259.7146666666666 L 143.03965544001 262.31566666666663 L 144.36667701381 262.7973333333333 L 145.03018780071 265.4946666666666 L 145.69369858761 262.50833333333327 L 146.35720937451 262.89366666666666 L 147.02072016142 258.75133333333326 L 147.68423094832 254.41633333333328 L 149.01125252212 254.8016666666666 L 149.67476330902 256.4393333333333 L 150.33827409592 255.76499999999993 L 151.00178488282 253.74199999999993 L 151.66529566972 255.37966666666662 L 152.32880645662 258.5586666666666 L 153.65582803042 258.6549999999999 L 154.31933881732 258.6549999999999 L 154.98284960422 259.13666666666666 L 155.64636039112 255.2833333333333 L 156.30987117802 256.1503333333333 L 156.97338196492 251.91166666666658 L 158.30040353872 251.23733333333334 L 158.96391432562 252.48966666666664 L 159.62742511253 253.06766666666667 L 160.29093589943 252.29699999999997 L 160.95444668633 260.0036666666667 L 161.61795747323 259.0403333333333 L 162.94497904703 259.52199999999993 L 163.60848983393 258.75133333333326 L 164.27200062083 258.5586666666666 L 164.93551140773 258.26966666666664 L 165.59902219463 252.68233333333328 L 166.26253298153 249.0216666666666 L 167.58955455533 249.11800000000002 L 168.25306534223 251.14100000000002 L 168.91657612913 250.7556666666666 L 169.58008691603 251.5263333333333 L 170.24359770293 254.51266666666663 L 170.90710848983 256.8246666666666 L 172.23413006363 255.95766666666668 L 172.89764085054 257.4026666666666 L 173.56115163744 257.01733333333334 L 174.22466242434 254.70533333333327 L 174.88817321124 259.23299999999995 L 175.55168399814 259.7146666666666 L 176.87870557194 260.09999999999997 L 177.54221635884 260.5816666666666 L 178.20572714574 263.18266666666665 L 178.86923793264 261.93033333333335 L 179.53274871954 261.1596666666666 L 180.19625950644 262.2193333333333 L 181.52328108024 262.02666666666664 L 182.18679186714 262.02666666666664 L 182.85030265404 262.50833333333327 L 183.51381344094 259.52199999999993 L 184.17732422784 260.5816666666666 L 184.84083501474 265.39833333333326 L 186.16785658855 264.04966666666667 L 186.83136737545 262.02666666666664 L 187.49487816235 262.4119999999999 L 188.15838894925 261.834 L 188.82189973615 268.28833333333324 L 189.48541052305 269.15533333333326 L 190.81243209685 269.15533333333326 L 191.47594288375 269.05899999999997 L 192.13945367065 268.19199999999995 L 192.80296445755 270.504 L 193.46647524445 268.77 L 194.12998603135 270.98566666666665 L 195.45700760515 270.8893333333333 L 196.12051839205 271.3709999999999 L 196.78402917895 271.94899999999996 L 197.44753996585 266.93966666666665 L 198.11105075275 264.14599999999996 L 198.77456153966 265.013 L 200.10158311346 265.2056666666666 L 200.76509390036 267.2286666666666 L 201.42860468726 266.65066666666667 L 202.09211547416 264.43499999999995 L 202.75562626106 262.2193333333333 L 203.41913704796 262.89366666666666 L 204.74615862176 262.7973333333333 L 205.40966940866 263.85699999999997 L 206.07318019556 264.91666666666663 L 206.73669098246 263.5679999999999 L 207.40020176936 261.1596666666666 L 208.06371255626 260.2926666666666 L 209.39073413006 260.2926666666666 L 210.05424491696 262.2193333333333 L 210.71775570386 265.1093333333333 L 211.38126649077 267.9993333333333 L 212.04477727767 269.73333333333335 L 212.70828806457 269.54066666666665 L 214.03530963837 267.61400000000003 L 214.69882042527 266.2653333333333 L 215.36233121217 265.9763333333333 L 216.02584199907 266.07266666666663 L 216.68935278597 266.07266666666663 L 217.35286357287 266.07266666666663 L 218.67988514667 265.9763333333333 L 219.34339593357 264.91666666666663 L 220.00690672047 265.4946666666666 L 220.67041750737 266.07266666666663 L 221.33392829427 266.93966666666665 L 221.99743908117 266.93966666666665 L 223.32446065497 267.2286666666666 L 223.98797144187 267.8066666666667 L 224.65148222878 265.88 L 225.31499301568 268.6736666666667 L 225.97850380258 268.77 L 226.64201458948 268.86633333333333 L 227.96903616328 268.86633333333333 L 228.63254695018 269.05899999999997 L 229.29605773708 271.65999999999997 L 229.95956852398 270.8893333333333 L 230.62307931088 267.32499999999993 L 231.28659009778 263.18266666666665 L 232.61361167158 263.27899999999994 L 233.27712245848 263.0863333333333 L 233.94063324538 260.38899999999995 L 234.60414403228 260.967 L 235.26765481918 260.67799999999994 L 235.93116560608 259.9073333333333 L 237.25818717989 260.2926666666666 L 237.92169796679 260.5816666666666 L 238.58520875369 260.2926666666666 L 239.24871954059 259.42566666666664 L 239.91223032749 257.88433333333336 L 240.57574111439 256.72833333333324 L 241.90276268819 256.4393333333333 L 242.56627347509 257.3063333333333 L 243.22978426199 256.72833333333324 L 243.89329504889 254.51266666666663 L 244.55680583579 255.18699999999998 L 245.22031662269 256.5356666666666 L 246.54733819649 256.4393333333333 L 247.21084898339 254.8016666666666 L 247.87435977029 256.4393333333333 L 248.53787055719 254.99433333333334 L 249.20138134409 258.077 L 249.86489213099 257.21 L 251.1919137048 257.49899999999997 L 251.8554244917 254.70533333333327 L 252.5189352786 252.29699999999997 L 253.1824460655 251.5263333333333 L 253.8459568524 252.48966666666664 L 254.5094676393 252.008 L 255.8364892131 251.62266666666662 L 256.5 253.6456666666666 L 257.1635107869 252.20066666666668 L 257.8270215738 254.70533333333327 L 258.4905323607 255.37966666666662 L 259.1540431476 254.99433333333334 L 260.4810647214 254.60899999999995 L 261.1445755083 255.2833333333333 L 261.8080862952 255.2833333333333 L 262.4715970821 256.5356666666666 L 263.13510786901 255.5723333333333 L 263.79861865591 257.49899999999997 L 265.12564022971 257.21 L 265.78915101661 259.7146666666666 L 266.45266180351 259.13666666666666 L 267.11617259041 258.1733333333333 L 267.77968337731 255.5723333333333 L 268.44319416421 254.70533333333327 L 269.77021573801 254.32 L 270.43372652491 255.2833333333333 L 271.09723731181 255.6686666666666 L 271.76074809871 257.3063333333333 L 272.42425888561 255.47599999999994 L 273.08776967251 255.37966666666662 L 274.41479124631 255.09066666666666 L 275.07830203321 256.054 L 275.74181282011 253.45299999999997 L 276.40532360702 251.14100000000002 L 277.06883439392 251.23733333333334 L 277.73234518082 251.04466666666667 L 279.05936675462 251.42999999999998 L 279.72287754152 250.94833333333327 L 280.38638832842 247.8656666666666 L 281.04989911532 247.8656666666666 L 281.71340990222 247.7693333333333 L 282.37692068912 246.03533333333326 L 283.70394226292 245.93899999999994 L 284.36745304982 246.6133333333333 L 285.03096383672 244.87933333333328 L 285.69447462362 244.30133333333333 L 286.35798541052 243.81966666666662 L 287.02149619742 246.03533333333326 L 288.34851777122 245.93899999999994 L 289.01202855813 245.64999999999998 L 289.67553934503 243.04899999999992 L 290.33905013193 243.53066666666666 L 291.00256091883 242.471 L 291.66607170573 244.9756666666666 L 292.99309327953 244.68666666666664 L 293.65660406643 243.7233333333333 L 294.32011485333 242.75999999999996 L 294.98362564023 242.56733333333332 L 295.64713642713 242.56733333333332 L 296.31064721403 244.39766666666668 L 297.63766878783 243.81966666666662 L 298.30117957473 242.471 L 298.96469036163 240.06266666666662 L 299.62820114853 236.88366666666664 L 300.29171193543 238.03966666666662 L 300.95522272233 235.9203333333333 L 302.28224429614 233.4156666666666 L 302.94575508304 233.12666666666664 L 303.60926586994 231.8743333333333 L 304.27277665684 233.12666666666664 L 304.93628744374 232.645 L 305.59979823064 229.85133333333334 L 306.92681980444 229.46599999999995 L 307.59033059134 229.46599999999995 L 308.25384137824 229.85133333333334 L 308.91735216514 230.81466666666665 L 309.58086295204 219.15833333333333 L 310.24437373894 219.4473333333333 L 311.57139531274 219.54366666666664 L 312.23490609964 216.46099999999998 L 312.89841688654 218.67666666666662 L 313.56192767344 217.52066666666664 L 314.22543846034 218.0986666666667 L 314.88894924725 220.3143333333333 L 316.21597082105 219.92899999999992 L 316.87948160795 218.9656666666666 L 317.54299239485 220.02533333333335 L 318.20650318175 214.63066666666663 L 318.87001396865 217.8096666666666 L 319.53352475555 212.5113333333333 L 320.86054632935 213.08933333333326 L 321.52405711625 213.66733333333332 L 322.18756790315 213.47466666666668 L 322.85107869005 209.62133333333333 L 323.51458947695 207.791 L 324.17810026385 203.84133333333332 L 325.50512183765 203.16699999999994 L 326.16863262455 203.93766666666664 L 326.83214341145 200.75866666666667 L 327.49565419835 200.18066666666664 L 328.15916498526 202.9743333333333 L 328.82267577216 193.72633333333326 L 330.14969734596 193.4373333333333 L 330.81320813286 202.01099999999997 L 331.47671891976 202.9743333333333 L 332.14022970666 206.82766666666663 L 332.80374049356 204.2266666666666 L 333.46725128046 200.4696666666666 L 334.79427285426 201.14399999999995 L 335.45778364116 207.8873333333333 L 336.12129442806 202.29999999999995 L 336.78480521496 212.89666666666662 L 337.44831600186 211.35533333333336 L 338.11182678876 208.56166666666667 L 339.43884836256 207.69466666666665 L 340.10235914946 210.68099999999998 L 340.76586993637 205.76799999999997 L 341.42938072327 201.81833333333333 L 342.09289151017 201.6256666666667 L 342.75640229707 202.9743333333333 L 344.08342387087 203.3596666666666 L 344.74693465777 204.70833333333331 L 345.41044544467 206.82766666666663 L 346.07395623157 200.75866666666667 L 346.73746701847 199.50633333333326 L 347.40097780537 194.20799999999997 L 348.72799937917 192.76299999999992 L 349.39151016607 191.51066666666662 L 350.05502095297 195.46033333333327 L 350.71853173987 191.7996666666667 L 351.38204252677 184.8636666666666 L 352.04555331367 189.77666666666659 L 353.37257488747 190.25833333333333 L 354.03608567438 187.75366666666662 L 354.69959646128 191.12533333333334 L 355.36310724818 188.81333333333328 L 356.02661803508 191.22166666666664 L 356.69012882198 194.11166666666665 L 358.01715039578 193.8226666666667 L 358.68066118268 189.58399999999995 L 359.34417196958 194.97866666666667 L 360.00768275648 196.03833333333333 L 360.67119354338 195.075 L 361.33470433028 185.82699999999994 L 362.66172590408 184.76733333333328 L 363.32523669098 189.10233333333332 L 363.98874747788 191.12533333333334 L 364.65225826478 193.052 L 365.31576905168 190.54733333333328 L 365.97927983858 189.6803333333333 L 367.30630141239 188.81333333333328 L 367.96981219929 190.73999999999995 L 368.63332298619 185.44166666666666 L 369.29683377309 180.81766666666664 L 369.96034455999 185.15266666666668 L 370.62385534689 179.27633333333335 L 371.95087692069 179.66166666666663 L 372.61438770759 181.20300000000003 L 373.27789849449 184.8636666666666 L 373.94140928139 189.3913333333333 L 374.60492006829 187.17566666666667 L 375.26843085519 190.35466666666665 L 376.59545242899 190.35466666666665 L 377.25896321589 188.81333333333328 L 377.92247400279 193.34099999999995 L 378.58598478969 182.8406666666666 L 379.24949557659 179.27633333333335 L 379.9130063635 175.61566666666667 L 381.2400279373 175.3266666666667 L 381.9035387242 175.712 L 382.5670495111 171.95499999999998 L 383.230560298 173.40000000000003 L 383.8940710849 175.13399999999996 L 384.5575818718 172.14766666666662 L 385.8846034456 171.666 L 386.5481142325 170.60633333333334 L 387.2116250194 170.99166666666662 L 387.8751358063 167.04199999999997 L 388.5386465932 167.42733333333325 L 389.2021573801 160.78033333333337 L 390.5291789539 156.92700000000002 L 391.1926897408 156.06 L 391.8562005277 153.0736666666667 L 392.51971131461 149.60566666666665 L 393.18322210151 146.42666666666668 L 393.84673288841 149.7983333333333 L 395.17375446221 151.72499999999997 L 395.83726524911 149.22033333333334 L 396.50077603601 144.98166666666663 L 397.16428682291 146.23400000000004 L 397.82779760981 135.0593333333333 L 398.49130839671 130.72433333333336 L 399.81832997051 130.24266666666665 L 400.48184075741 133.22899999999996 L 401.14535154431 129.2793333333333 L 401.80886233121 133.61433333333338 L 402.47237311811 115.79266666666663 L 403.13588390501 103.84733333333332 L 404.46290547881 97.29666666666665 L 405.12641626571 106.15933333333328 L 405.78992705262 116.85233333333329 L 406.45343783952 109.91633333333331 L 407.11694862642 112.3246666666667 L 407.78045941332 109.91633333333331 L 409.10748098712 111.45766666666668 L 409.77099177402 113.96233333333328 L 410.43450256092 124.26999999999998 L 411.09801334782 114.3476666666667 L 411.76152413472 123.98100000000002 L 412.42503492162 112.03566666666663 L 413.75205649542 111.84299999999996 L 414.41556728232 112.61366666666666 L 415.07907806922 112.42100000000002 L 415.74258885612 113.38433333333336 L 416.40609964302 118.48999999999998 L 417.06961042992 117.23766666666668 L 418.39663200373 118.1046666666667 L 419.06014279063 114.92566666666661 L 419.72365357753 119.26066666666668 L 420.38716436443 118.1046666666667 L 421.05067515133 115.79266666666663 L 421.71418593823 116.85233333333329 L 423.04120751203 116.85233333333329 L 423.70471829893 113.28800000000004 L 424.36822908583 113.86599999999996 L 425.03173987273 115.50366666666667 L 425.69525065963 102.98033333333333 L 426.35876144653 102.88399999999999 L 427.68578302033 100.18666666666664 L 428.34929380723 102.017 L 429.01280459413 101.34266666666662 L 429.67631538103 93.82866666666669 L 430.33982616793 89.97533333333337 L 431.00333695483 74.94733333333332 L 432.33035852864 75.04366666666664 L 432.99386931554 75.71799999999999 L 433.65738010244 62.90566666666669 L 434.32089088934 49.90066666666664 L 434.98440167624 57.51099999999997 L 435.64791246314 45.46933333333337 L 436.97493403694 44.21700000000004 L 437.63844482384 51.827333333333286 L 438.30195561074 54.42833333333334 L 438.96546639764 76.77766666666665 L 439.62897718454 59.63033333333328 L 440.29248797144 73.11699999999996 L 441.61950954524 73.50233333333335 L 442.28302033214 83.32833333333335 L 442.94653111904 81.69066666666666 L 443.61004190594 85.35133333333334 L 444.27355269284 78.22266666666673 L 444.93706347975 78.608 L 446.26408505355 78.22266666666673 L 446.92759584045 74.0803333333333 L 447.59110662735 65.60300000000004 L 448.25461741425 68.3003333333333 L 448.91812820115 78.22266666666673 L 449.58163898805 85.83299999999994 L 450.90866056185 87.56699999999998 L 451.57217134875 81.49800000000002 L 452.23568213565 72.63533333333336 L 452.89919292255 69.74533333333335 L 453.56270370945 59.53399999999996 L 454.22621449635 54.81366666666662 L 455.55323607015 55.29533333333333 L 456.21674685705 51.730999999999966 L 456.88025764395 59.148666666666685 L 457.54376843086 61.94233333333335 L 458.20727921776 68.10766666666666 L 458.87079000466 71.86466666666666 L 460.19781157846 72.15366666666662 L 460.86132236536 66.2773333333333 L 461.52483315226 65.98833333333334 L 462.18834393916 65.21766666666664 L 462.85185472606 73.5986666666667 L 463.51536551296 77.45200000000003 L 464.84238708676 76.97033333333331 L 465.50589787366 78.608 L 466.16940866056 86.12200000000004 L 466.83291944746 97.971 L 467.49643023436 105.09966666666665 L 468.15994102126 103.2693333333333 L 469.48696259506 102.017 L 470.15047338196 99.03066666666666 L 470.81398416887 102.11333333333332 L 471.47749495577 114.8293333333333 L 472.14100574267 108.27866666666671 L 472.80451652957 103.55833333333337 L 474.13153810337 102.69133333333335 L 474.79504889027 99.80133333333336 L 475.45855967717 104.32899999999995 L 476.12207046407 115.11833333333337 L 476.78558125097 119.06800000000004 L 477.44909203787 122.15066666666667 L 478.77611361167 121.66899999999995 L 479.43962439857 111.93933333333331 L 480.10313518547 99.31966666666662 L 480.76664597237 94.98466666666667 L 481.43015675927 96.42966666666663 L 482.09366754617 89.01200000000003 L 483.42068911998 86.8926666666666 L 484.08419990688 85.73666666666662 L 484.74771069378 77.45200000000003 L 485.41122148068 79.95666666666662 L 486.07473226758 83.52099999999999 L 486.73824305448 86.60366666666664 L 488.06526462828 84.19533333333337 L 488.72877541518 81.78699999999998 L 489.39228620208 99.70500000000004 L 490.05579698898 108.76033333333334 L 490.71930777588 106.15933333333328 L 491.38281856278 96.42966666666663 L 492.70984013658 95.94800000000001 L 493.37335092348 110.10899999999995 L 494.03686171038 109.62733333333333 L 494.70037249728 112.8063333333333 L 495.36388328418 107.70066666666668 L 496.02739407108 108.56766666666667 L 497.35441564489 104.71433333333334 L 498.01792643179 109.62733333333333 L 498.68143721869 106.83366666666666 L 499.34494800559 113.577 L 500.00845879249 115.40733333333336 L 500.67196957939 114.8293333333333 L 501.99899115319 116.17800000000003 L 502.66250194009 113.86599999999996 L 503.32601272699 100.95733333333334 L 503.98952351389 103.65466666666669 L 504.65303430079 103.55833333333337 L 505.31654508769 100.66833333333335 L 506.64356666149 85.44766666666666 L 507.30707744839 105.96666666666664 L 507.97058823529 101.14999999999998" stroke="#7cb5ec" stroke-width="1" stroke-linejoin="round" stroke-linecap="round"></path></g><g class="highcharts-markers highcharts-series-0" transform="translate(77,71) scale(1 1)" clip-path="none"></g></g><text x="300" text-anchor="middle" class="highcharts-title" style="color:#333333;font-size:18px;fill:#333333;width:536px;" y="24"><tspan>Memory usage over time</tspan></text><text x="300" text-anchor="middle" class="highcharts-subtitle" style="color:#555555;fill:#555555;width:536px;" y="52"><tspan></tspan></text><g class="highcharts-axis-labels highcharts-xaxis-labels"><text x="223.35720937451498" style="color:#606060;cursor:default;font-size:11px;fill:#606060;width:118px;text-overflow:clip;" text-anchor="middle" transform="translate(0,0)" y="379" opacity="1"><tspan>Jan '14</tspan></text><text x="465.538646593202" style="color:#606060;cursor:default;font-size:11px;fill:#606060;width:118px;text-overflow:clip;" text-anchor="middle" transform="translate(0,0)" y="379" opacity="1"><tspan>Jan '15</tspan></text><text x="101.27122458482074" style="color:#606060;cursor:default;font-size:11px;fill:#606060;width:118px;text-overflow:clip;" text-anchor="middle" transform="translate(0,0)" y="379" opacity="1"><tspan>Jul '13</tspan></text><text x="343.4526618035077" style="color:#606060;cursor:default;font-size:11px;fill:#606060;width:118px;text-overflow:clip;" text-anchor="middle" transform="translate(0,0)" y="379" opacity="1"><tspan>Jul '14</tspan></text><text x="572.84375" style="color:#606060;cursor:default;font-size:11px;fill:#606060;width:118px;text-overflow:clip;" text-anchor="middle" transform="translate(0,0)" y="379" opacity="1"><tspan>Jul '15</tspan></text></g><g class="highcharts-axis-labels highcharts-yaxis-labels"><text x="62" style="color:#606060;cursor:default;font-size:11px;fill:#606060;width:188px;text-overflow:clip;" text-anchor="end" transform="translate(0,0)" y="363" opacity="1">0.7</text><text x="62" style="color:#606060;cursor:default;font-size:11px;fill:#606060;width:188px;text-overflow:clip;" text-anchor="end" transform="translate(0,0)" y="314" opacity="1">0.75</text><text x="62" style="color:#606060;cursor:default;font-size:11px;fill:#606060;width:188px;text-overflow:clip;" text-anchor="end" transform="translate(0,0)" y="266" opacity="1">0.8</text><text x="62" style="color:#606060;cursor:default;font-size:11px;fill:#606060;width:188px;text-overflow:clip;" text-anchor="end" transform="translate(0,0)" y="218" opacity="1">0.85</text><text x="62" style="color:#606060;cursor:default;font-size:11px;fill:#606060;width:188px;text-overflow:clip;" text-anchor="end" transform="translate(0,0)" y="170" opacity="1">0.9</text><text x="62" style="color:#606060;cursor:default;font-size:11px;fill:#606060;width:188px;text-overflow:clip;" text-anchor="end" transform="translate(0,0)" y="122" opacity="1">0.95</text><text x="62" style="color:#606060;cursor:default;font-size:11px;fill:#606060;width:188px;text-overflow:clip;" text-anchor="end" transform="translate(0,0)" y="74" opacity="1">1</text></g><g class="highcharts-tooltip" style="cursor:default;padding:0;pointer-events:none;white-space:nowrap;" transform="translate(0,-9999)"><path fill="none" d="M 3.5 0.5 L 13.5 0.5 C 16.5 0.5 16.5 0.5 16.5 3.5 L 16.5 13.5 C 16.5 16.5 16.5 16.5 13.5 16.5 L 3.5 16.5 C 0.5 16.5 0.5 16.5 0.5 13.5 L 0.5 3.5 C 0.5 0.5 0.5 0.5 3.5 0.5"  stroke="black" stroke-opacity="0.049999999999999996" stroke-width="5" transform="translate(1, 1)"></path><path fill="none" d="M 3.5 0.5 L 13.5 0.5 C 16.5 0.5 16.5 0.5 16.5 3.5 L 16.5 13.5 C 16.5 16.5 16.5 16.5 13.5 16.5 L 3.5 16.5 C 0.5 16.5 0.5 16.5 0.5 13.5 L 0.5 3.5 C 0.5 0.5 0.5 0.5 3.5 0.5"  stroke="black" stroke-opacity="0.09999999999999999" stroke-width="3" transform="translate(1, 1)"></path><path fill="none" d="M 3.5 0.5 L 13.5 0.5 C 16.5 0.5 16.5 0.5 16.5 3.5 L 16.5 13.5 C 16.5 16.5 16.5 16.5 13.5 16.5 L 3.5 16.5 C 0.5 16.5 0.5 16.5 0.5 13.5 L 0.5 3.5 C 0.5 0.5 0.5 0.5 3.5 0.5"  stroke="black" stroke-opacity="0.15" stroke-width="1" transform="translate(1, 1)"></path><path fill="rgb(249, 249, 249)" fill-opacity=" .85" d="M 3.5 0.5 L 13.5 0.5 C 16.5 0.5 16.5 0.5 16.5 3.5 L 16.5 13.5 C 16.5 16.5 16.5 16.5 13.5 16.5 L 3.5 16.5 C 0.5 16.5 0.5 16.5 0.5 13.5 L 0.5 3.5 C 0.5 0.5 0.5 0.5 3.5 0.5"></path><text x="8" style="font-size:12px;color:#333333;fill:#333333;" y="20"></text></g><text x="590" text-anchor="end" style="cursor:pointer;color:#909090;font-size:9px;fill:#909090;" y="395">Highcharts.com</text></svg>