<?xml version="1.0" encoding="iso-8859-1"?>
   <!DOCTYPE svg PUBLIC "-//W3C//DTD SVG 1.0//EN"
     "http://www.w3.org/TR/2001/
      REC-SVG-20010904/DTD/svg10.dtd"><svg xmlns="http://www.w3.org/2000/svg" width="300" height="300" viewBox="0 0 300 300" style="overflow: hidden;"><defs id="defs"/><rect x="0" y="0" width="300" height="300" stroke="none" stroke-width="0" fill="#ffffff"/><g><path d="M150,150L150,15A135,135,0,0,1,265.6071190839645,80.28634267874014L150,150A0,0,0,0,0,150,150" stroke="#ffffff" stroke-width="1" fill="#633ab5"/></g><g><path d="M150,150L15.055053968194443,153.85506685714898A135,135,0,0,1,150,15L150,150A0,0,0,0,0,150,150" stroke="#ffffff" stroke-width="1" fill="#15092e"/></g><g><path d="M150,150L111.96610482640702,279.53155143795715A135,135,0,0,1,15.055053968194443,153.85506685714915L150,150A0,0,0,0,0,150,150" stroke="#ffffff" stroke-width="1" fill="#24124a"/></g><g><path d="M150,150L265.6071190839645,80.28634267874014A135,135,0,0,1,111.96610482640702,279.53155143795715L150,150A0,0,0,0,0,150,150" stroke="#ffffff" stroke-width="1" fill="#422480"/></g><g/><circle cx="422" cy="150" r="120" fill="#FFFFFF" stroke="none" stroke-width="0"/></svg>